<svg width="1512" height="982" viewBox="0 0 1512 982" fill="none" xmlns="http://www.w3.org/2000/svg">
<rect width="1512" height="982" fill="url(#paint0_radial_62_53782)"/>
<g opacity="0.5">
<path opacity="0.7" d="M323.215 323.039C323.215 323.888 322.651 324.313 321.523 324.313C320.395 324.313 319.831 323.888 319.831 323.039C319.831 322.19 320.395 321.766 321.523 321.766C322.087 321.766 323.215 322.19 323.215 323.039Z" fill="white"/>
<path opacity="0.7" d="M392.59 323.04C392.59 323.464 392.026 323.889 391.462 323.889C390.898 323.889 390.334 323.464 390.334 323.04C390.334 322.615 390.898 322.191 391.462 322.191C392.026 321.766 392.59 322.191 392.59 323.04Z" fill="white"/>
<path opacity="0.7" d="M255.533 391.384C255.533 391.808 254.969 392.233 254.405 392.233C253.841 392.233 253.277 391.808 253.277 391.384C253.277 390.959 253.841 390.535 254.405 390.535C254.969 390.535 255.533 390.959 255.533 391.384Z" fill="white"/>
<path opacity="0.7" d="M1037.28 339.595C1037.28 340.02 1036.72 340.444 1036.15 340.444C1035.59 340.444 1035.02 340.02 1035.02 339.595C1035.02 339.171 1035.59 338.746 1036.15 338.746C1036.72 338.746 1037.28 339.171 1037.28 339.595Z" fill="white"/>
<path opacity="0.7" d="M407.258 272.524C407.258 272.949 406.694 273.373 406.13 273.373C405.566 273.373 405.002 272.949 405.002 272.524C405.002 272.1 405.566 271.675 406.13 271.675C406.694 271.675 407.258 272.1 407.258 272.524Z" fill="white"/>
<path opacity="0.7" d="M405 300.965C405 301.39 404.436 301.814 403.872 301.814C403.308 301.814 402.744 301.39 402.744 300.965C402.744 300.541 403.308 300.116 403.872 300.116C404.436 300.116 405 300.541 405 300.965Z" fill="white"/>
<path opacity="0.7" d="M456.329 152.815C456.329 153.664 455.764 154.089 454.636 154.089C453.508 154.089 452.944 153.664 452.944 152.815C452.944 151.966 453.508 151.542 454.636 151.542C455.764 151.542 456.329 152.391 456.329 152.815Z" fill="white"/>
<path opacity="0.7" d="M462.53 352.754C462.53 353.603 461.402 354.452 460.274 354.452C459.146 354.452 458.018 353.603 458.018 352.754C458.018 351.905 459.146 351.056 460.274 351.056C461.966 351.056 462.53 351.905 462.53 352.754Z" fill="white"/>
<path opacity="0.7" d="M362.702 140.081C362.702 140.93 361.574 141.779 360.446 141.779C359.318 141.779 358.189 140.93 358.189 140.081C358.189 139.232 359.318 138.383 360.446 138.383C361.574 138.383 362.702 138.808 362.702 140.081Z" fill="white"/>
<path opacity="0.7" d="M175.442 281.014C175.442 281.863 174.314 282.712 173.186 282.712C172.058 282.712 170.93 281.863 170.93 281.014C170.93 280.165 172.058 279.316 173.186 279.316C174.314 279.316 175.442 280.165 175.442 281.014Z" fill="white"/>
<path opacity="0.7" d="M143.292 414.731C143.292 415.58 142.163 416.429 141.035 416.429C139.907 416.429 138.779 415.58 138.779 414.731C138.779 413.882 139.907 413.033 141.035 413.033C142.727 413.033 143.292 413.882 143.292 414.731Z" fill="white"/>
<path opacity="0.7" d="M253.278 290.353C253.278 291.202 252.15 292.051 251.022 292.051C249.894 292.051 248.766 291.202 248.766 290.353C248.766 289.504 249.894 288.655 251.022 288.655C252.15 288.655 253.278 289.504 253.278 290.353Z" fill="white"/>
<path opacity="0.7" d="M203.644 404.543C203.644 405.392 203.08 405.816 201.952 405.816C200.824 405.816 200.26 405.392 200.26 404.543C200.26 403.694 200.824 403.27 201.952 403.27C203.08 403.27 203.644 403.694 203.644 404.543Z" fill="white"/>
<path opacity="0.7" d="M233.537 234.744C233.537 235.593 232.973 236.017 231.845 236.017C230.717 236.017 230.153 235.593 230.153 234.744C230.153 233.895 230.717 233.47 231.845 233.47C232.973 233.47 233.537 234.319 233.537 234.744Z" fill="white"/>
<path opacity="0.7" d="M176.006 132.016C176.006 132.44 175.442 132.865 174.878 132.865C174.314 132.865 173.75 132.44 173.75 132.016C173.75 131.591 174.314 131.167 174.878 131.167C175.442 130.742 176.006 131.167 176.006 132.016Z" fill="white"/>
<path opacity="0.7" d="M836.483 201.208C836.483 201.633 835.919 202.057 835.355 202.057C834.791 202.057 834.227 201.633 834.227 201.208C834.227 200.784 834.791 200.359 835.355 200.359C835.919 200.359 836.483 200.359 836.483 201.208Z" fill="white"/>
<path opacity="0.7" d="M320.963 185.927C320.963 186.352 320.399 186.776 319.835 186.776C319.271 186.776 318.707 186.352 318.707 185.927C318.707 185.503 319.271 185.078 319.835 185.078C320.399 185.078 320.963 185.503 320.963 185.927Z" fill="white"/>
<path opacity="0.7" d="M690.964 431.717C690.964 432.141 690.4 432.566 689.836 432.566C689.272 432.566 688.708 432.141 688.708 431.717C688.708 431.292 689.272 430.868 689.836 430.868C690.4 430.868 690.964 431.292 690.964 431.717Z" fill="white"/>
<path opacity="0.7" d="M370.596 236.867C370.596 237.291 370.032 237.716 369.468 237.716C368.904 237.716 368.34 237.291 368.34 236.867C368.34 236.442 368.904 236.018 369.468 236.018C370.032 236.018 370.596 236.442 370.596 236.867Z" fill="white"/>
<path opacity="0.7" d="M279.785 425.768C279.785 426.192 279.221 426.617 278.657 426.617C278.093 426.617 277.529 426.192 277.529 425.768C277.529 425.343 278.093 424.919 278.657 424.919C279.221 424.919 279.785 425.343 279.785 425.768Z" fill="white"/>
<path opacity="0.7" d="M291.63 150.694C291.63 151.543 290.502 152.392 289.374 152.392C288.246 152.392 287.118 151.543 287.118 150.694C287.118 149.845 288.246 148.996 289.374 148.996C290.502 148.996 291.63 149.845 291.63 150.694Z" fill="white"/>
<path opacity="0.7" d="M775.567 190.171C775.567 191.02 774.439 191.869 773.311 191.869C772.183 191.869 771.055 191.02 771.055 190.171C771.055 189.322 772.183 188.473 773.311 188.473C775.003 188.473 775.567 188.898 775.567 190.171Z" fill="white"/>
<path opacity="0.7" d="M144.985 390.534C144.985 391.383 144.421 391.808 143.293 391.808C142.165 391.808 141.601 391.383 141.601 390.534C141.601 389.685 142.165 389.261 143.293 389.261C144.421 389.261 144.985 389.685 144.985 390.534Z" fill="white"/>
<path opacity="0.7" d="M406.13 389.261C406.13 390.535 404.438 391.808 402.746 391.808C401.053 391.808 399.361 390.535 399.361 389.261C399.361 387.988 401.053 386.714 402.746 386.714C404.438 387.139 406.13 387.988 406.13 389.261Z" fill="white"/>
<path opacity="0.7" d="M305.166 345.537C305.166 345.962 304.602 346.386 304.038 346.386C303.474 346.386 302.91 345.962 302.91 345.537C302.91 345.113 303.474 344.688 304.038 344.688C304.602 344.264 305.166 344.688 305.166 345.537Z" fill="white"/>
<path opacity="0.7" d="M374.545 416.429C374.545 416.853 373.981 417.278 373.417 417.278C372.853 417.278 372.289 416.853 372.289 416.429C372.289 416.004 372.853 415.58 373.417 415.58C373.981 415.58 374.545 416.004 374.545 416.429Z" fill="white"/>
<path opacity="0.7" d="M919.396 320.068C919.396 320.492 918.832 320.917 918.268 320.917C917.704 320.917 917.14 320.492 917.14 320.068C917.14 319.643 917.704 319.219 918.268 319.219C918.832 319.219 919.396 319.643 919.396 320.068Z" fill="white"/>
<path opacity="0.7" d="M953.238 412.184C953.238 412.608 952.674 413.033 952.109 413.033C951.545 413.033 950.981 412.608 950.981 412.184C950.981 411.759 951.545 411.335 952.109 411.335C952.674 411.335 953.238 411.759 953.238 412.184Z" fill="white"/>
<path opacity="0.7" d="M782.9 406.666C782.9 407.09 782.336 407.515 781.772 407.515C781.208 407.515 780.644 407.09 780.644 406.666C780.644 406.241 781.208 405.817 781.772 405.817C782.336 405.817 782.9 406.241 782.9 406.666Z" fill="white"/>
<path opacity="0.7" d="M1020.36 369.734C1020.36 370.159 1019.79 370.583 1019.23 370.583C1018.67 370.583 1018.1 370.159 1018.1 369.734C1018.1 369.31 1018.67 368.885 1019.23 368.885C1019.79 368.461 1020.36 368.885 1020.36 369.734Z" fill="white"/>
<path opacity="0.7" d="M923.911 376.95C923.911 377.799 922.783 378.648 921.655 378.648C920.527 378.648 919.398 377.799 919.398 376.95C919.398 376.101 920.527 375.252 921.655 375.252C922.783 375.252 923.911 376.101 923.911 376.95Z" fill="white"/>
<path opacity="0.7" d="M885.552 290.353C885.552 291.202 884.424 292.051 883.296 292.051C882.168 292.051 881.04 291.202 881.04 290.353C881.04 289.504 882.168 288.655 883.296 288.655C884.424 288.655 885.552 289.504 885.552 290.353Z" fill="white"/>
<path opacity="0.7" d="M923.345 421.523C923.345 421.948 922.781 422.372 922.217 422.372C921.653 422.372 921.089 421.948 921.089 421.523C921.089 421.099 921.653 420.674 922.217 420.674C922.781 420.674 923.345 421.099 923.345 421.523Z" fill="white"/>
<path opacity="0.7" d="M953.238 185.927C953.238 186.352 952.674 186.776 952.109 186.776C951.545 186.776 950.981 186.352 950.981 185.927C950.981 185.503 951.545 185.078 952.109 185.078C952.674 185.078 953.238 185.503 953.238 185.927Z" fill="white"/>
<path opacity="0.7" d="M946.468 241.96C946.468 242.385 945.904 242.809 945.34 242.809C944.776 242.809 944.212 242.385 944.212 241.96C944.212 241.536 944.776 241.111 945.34 241.111C945.904 241.111 946.468 241.536 946.468 241.96Z" fill="white"/>
<path opacity="0.7" d="M887.812 165.551C887.812 165.975 887.248 166.4 886.684 166.4C886.12 166.4 885.556 165.975 885.556 165.551C885.556 165.126 886.12 164.702 886.684 164.702C887.248 164.277 887.812 164.702 887.812 165.551Z" fill="white"/>
<path opacity="0.7" d="M923.911 150.694C923.911 151.543 922.783 152.392 921.655 152.392C920.527 152.392 919.398 151.543 919.398 150.694C919.398 149.845 920.527 148.996 921.655 148.996C922.783 148.996 923.911 149.845 923.911 150.694Z" fill="white"/>
<path opacity="0.7" d="M829.149 278.467C829.149 279.316 828.021 280.165 826.893 280.165C825.765 280.165 824.637 279.316 824.637 278.467C824.637 277.618 825.765 276.769 826.893 276.769C828.021 276.769 829.149 277.618 829.149 278.467Z" fill="white"/>
<path opacity="0.7" d="M799.82 344.689C799.82 345.113 799.256 345.538 798.692 345.538C798.128 345.538 797.564 345.113 797.564 344.689C797.564 344.264 798.128 343.84 798.692 343.84C799.256 343.84 799.82 344.264 799.82 344.689Z" fill="white"/>
<path opacity="0.7" d="M181.646 423.646C181.646 424.495 181.082 424.919 179.954 424.919C178.826 424.919 178.262 424.495 178.262 423.646C178.262 422.797 178.826 422.372 179.954 422.372C181.082 422.372 181.646 422.797 181.646 423.646Z" fill="white"/>
<path opacity="0.7" d="M626.101 323.888C626.101 325.161 624.409 326.435 622.717 326.435C621.025 326.435 619.333 325.161 619.333 323.888C619.333 322.614 621.025 321.341 622.717 321.341C624.409 321.765 626.101 322.614 626.101 323.888Z" fill="white"/>
<path opacity="0.7" d="M586.618 320.068C586.618 320.492 586.054 320.917 585.49 320.917C584.926 320.917 584.362 320.492 584.362 320.068C584.362 319.643 584.926 319.219 585.49 319.219C586.054 319.219 586.618 319.643 586.618 320.068Z" fill="white"/>
<path opacity="0.7" d="M517.244 219.037C517.244 219.462 516.68 219.886 516.116 219.886C515.552 219.886 514.988 219.462 514.988 219.037C514.988 218.613 515.552 218.189 516.116 218.189C516.68 217.764 517.244 218.188 517.244 219.037Z" fill="white"/>
<path opacity="0.7" d="M621.023 412.184C621.023 412.608 620.459 413.033 619.895 413.033C619.331 413.033 618.767 412.608 618.767 412.184C618.767 411.759 619.331 411.335 619.895 411.335C620.459 411.335 621.023 411.759 621.023 412.184Z" fill="white"/>
<path opacity="0.7" d="M555.597 391.384C555.597 391.808 555.033 392.233 554.469 392.233C553.905 392.233 553.341 391.808 553.341 391.384C553.341 390.959 553.905 390.535 554.469 390.535C555.033 390.535 555.597 390.959 555.597 391.384Z" fill="white"/>
<path opacity="0.7" d="M705.065 426.192C705.065 426.617 704.501 427.041 703.937 427.041C703.373 427.041 702.809 426.617 702.809 426.192C702.809 425.768 703.373 425.343 703.937 425.343C704.501 425.343 705.065 425.768 705.065 426.192Z" fill="white"/>
<path opacity="0.7" d="M525.138 371.007C525.138 371.432 524.574 371.856 524.01 371.856C523.446 371.856 522.882 371.432 522.882 371.007C522.882 370.583 523.446 370.158 524.01 370.158C524.574 369.734 525.138 370.158 525.138 371.007Z" fill="white"/>
<path opacity="0.7" d="M705.065 300.965C705.065 301.39 704.501 301.814 703.937 301.814C703.373 301.814 702.809 301.39 702.809 300.965C702.809 300.541 703.373 300.116 703.937 300.116C704.501 300.116 705.065 300.541 705.065 300.965Z" fill="white"/>
<path opacity="0.7" d="M578.158 278.467C578.158 278.892 577.593 279.316 577.029 279.316C576.465 279.316 575.901 278.892 575.901 278.467C575.901 278.043 576.465 277.618 577.029 277.618C577.593 277.618 578.158 278.043 578.158 278.467Z" fill="white"/>
<path opacity="0.7" d="M438.845 323.888C438.845 324.737 437.717 325.586 436.589 325.586C435.461 325.586 434.333 324.737 434.333 323.888C434.333 323.039 435.461 322.19 436.589 322.19C437.717 322.19 438.845 323.039 438.845 323.888Z" fill="white"/>
<path opacity="0.7" d="M461.968 300.966C461.968 301.815 460.84 302.664 459.712 302.664C458.584 302.664 457.456 301.815 457.456 300.966C457.456 300.117 458.584 299.268 459.712 299.268C460.84 299.268 461.968 300.117 461.968 300.966Z" fill="white"/>
<path opacity="0.7" d="M443.357 414.731C443.357 415.58 442.229 416.429 441.101 416.429C439.973 416.429 438.845 415.58 438.845 414.731C438.845 413.882 439.973 413.033 441.101 413.033C442.229 413.033 443.357 413.882 443.357 414.731Z" fill="white"/>
<path opacity="0.7" d="M552.775 290.353C552.775 291.202 551.647 292.051 550.519 292.051C549.391 292.051 548.263 291.202 548.263 290.353C548.263 289.504 549.391 288.655 550.519 288.655C551.647 288.655 552.775 289.504 552.775 290.353Z" fill="white"/>
<path opacity="0.7" d="M503.705 404.543C503.705 405.392 503.141 405.816 502.012 405.816C500.884 405.816 500.32 405.392 500.32 404.543C500.32 403.694 500.884 403.27 502.012 403.27C503.141 403.27 503.705 403.694 503.705 404.543Z" fill="white"/>
<path opacity="0.7" d="M667.837 355.726C667.837 356.999 666.145 358.273 664.453 358.273C662.76 358.273 661.068 356.999 661.068 355.726C661.068 354.452 662.76 353.179 664.453 353.179C666.709 353.179 667.837 354.028 667.837 355.726Z" fill="white"/>
<path opacity="0.7" d="M507.091 269.128C507.091 269.977 506.527 270.402 505.399 270.402C504.271 270.402 503.707 269.977 503.707 269.128C503.707 268.279 504.271 267.855 505.399 267.855C505.963 267.855 507.091 268.279 507.091 269.128Z" fill="white"/>
<path opacity="0.7" d="M476.072 132.016C476.072 132.44 475.507 132.865 474.943 132.865C474.379 132.865 473.815 132.44 473.815 132.016C473.815 131.591 474.379 131.167 474.943 131.167C475.507 130.742 476.072 131.167 476.072 132.016Z" fill="white"/>
<path opacity="0.7" d="M477.195 219.887C477.195 220.311 476.631 220.736 476.067 220.736C475.503 220.736 474.938 220.311 474.938 219.887C474.938 219.462 475.503 219.038 476.067 219.038C476.631 219.038 477.195 219.462 477.195 219.887Z" fill="white"/>
<path opacity="0.7" d="M621.023 185.927C621.023 186.352 620.459 186.776 619.895 186.776C619.331 186.776 618.767 186.352 618.767 185.927C618.767 185.503 619.331 185.078 619.895 185.078C620.459 185.078 621.023 185.503 621.023 185.927Z" fill="white"/>
<path opacity="0.7" d="M614.258 241.96C614.258 242.385 613.694 242.809 613.13 242.809C612.566 242.809 612.002 242.385 612.002 241.96C612.002 241.536 612.566 241.111 613.13 241.111C613.694 241.111 614.258 241.536 614.258 241.96Z" fill="white"/>
<path opacity="0.7" d="M555.597 165.551C555.597 165.975 555.033 166.4 554.469 166.4C553.905 166.4 553.341 165.975 553.341 165.551C553.341 165.126 553.905 164.702 554.469 164.702C555.033 164.277 555.597 164.702 555.597 165.551Z" fill="white"/>
<path opacity="0.7" d="M669.533 237.716C670.156 237.716 670.661 237.335 670.661 236.867C670.661 236.398 670.156 236.018 669.533 236.018C668.91 236.018 668.405 236.398 668.405 236.867C668.405 237.335 668.91 237.716 669.533 237.716Z" fill="white"/>
<path opacity="0.7" d="M525.704 144.75C525.704 145.174 525.14 145.599 524.576 145.599C524.012 145.599 523.448 145.174 523.448 144.75C523.448 144.325 524.012 143.901 524.576 143.901C525.14 143.901 525.704 144.325 525.704 144.75Z" fill="white"/>
<path opacity="0.7" d="M148.369 134.986C148.369 136.26 146.677 137.533 144.985 137.533C143.293 137.533 141.601 136.26 141.601 134.986C141.601 133.713 143.293 132.439 144.985 132.439C147.241 132.439 148.369 133.713 148.369 134.986Z" fill="white"/>
<path opacity="0.7" d="M591.132 150.694C591.132 151.543 590.004 152.392 588.876 152.392C587.748 152.392 586.62 151.543 586.62 150.694C586.62 149.845 587.748 148.996 588.876 148.996C590.004 148.996 591.132 149.845 591.132 150.694Z" fill="white"/>
<path opacity="0.7" d="M571.954 240.262C571.954 241.111 570.826 241.96 569.698 241.96C568.569 241.96 567.441 241.111 567.441 240.262C567.441 239.413 568.569 238.564 569.698 238.564C571.39 238.564 571.954 239.413 571.954 240.262Z" fill="white"/>
<path opacity="0.7" d="M534.163 217.763C534.163 218.612 533.035 219.461 531.906 219.461C530.778 219.461 529.65 218.612 529.65 217.763C529.65 216.914 530.778 216.065 531.906 216.065C533.599 216.065 534.163 216.49 534.163 217.763Z" fill="white"/>
<path opacity="0.7" d="M443.357 188.898C443.357 189.747 442.229 190.596 441.101 190.596C439.973 190.596 438.845 189.747 438.845 188.898C438.845 188.049 439.973 187.2 441.101 187.2C442.229 187.2 443.357 187.625 443.357 188.898Z" fill="white"/>
<path opacity="0.7" d="M503.705 178.285C503.705 179.134 503.141 179.559 502.012 179.559C500.884 179.559 500.32 179.134 500.32 178.285C500.32 177.436 500.884 177.012 502.012 177.012C503.141 177.012 503.705 177.861 503.705 178.285Z" fill="white"/>
<path opacity="0.7" d="M474.941 238.989C474.941 239.838 474.377 240.262 473.249 240.262C472.121 240.262 471.557 239.838 471.557 238.989C471.557 238.14 472.121 237.715 473.249 237.715C473.813 237.715 474.941 238.14 474.941 238.989Z" fill="white"/>
<path opacity="0.7" d="M575.904 210.123C575.904 210.972 575.34 211.396 574.212 211.396C573.084 211.396 572.52 210.972 572.52 210.123C572.52 209.274 573.084 208.849 574.212 208.849C574.776 208.849 575.904 209.274 575.904 210.123Z" fill="white"/>
<path opacity="0.7" d="M436.586 233.47C436.586 234.743 434.894 236.017 433.202 236.017C431.509 236.017 429.817 234.743 429.817 233.47C429.817 232.196 431.509 230.923 433.202 230.923C435.458 230.923 436.586 232.196 436.586 233.47Z" fill="white"/>
<path opacity="0.7" d="M602.41 378.649C602.41 379.073 601.846 379.498 601.282 379.498C600.718 379.498 600.154 379.073 600.154 378.649C600.154 378.224 600.718 377.8 601.282 377.8C601.846 377.8 602.41 378.224 602.41 378.649Z" fill="white"/>
<path opacity="0.7" d="M481.144 423.646C481.144 424.495 480.58 424.919 479.452 424.919C478.324 424.919 477.76 424.495 477.76 423.646C477.76 422.797 478.324 422.372 479.452 422.372C480.58 422.372 481.144 422.797 481.144 423.646Z" fill="white"/>
<path opacity="0.7" d="M652.044 169.371C652.044 169.795 651.48 170.22 650.916 170.22C650.352 170.22 649.788 169.795 649.788 169.371C649.788 168.946 650.352 168.522 650.916 168.522C651.48 168.522 652.044 168.946 652.044 169.371Z" fill="white"/>
<path opacity="0.7" d="M638.511 274.222C638.511 275.496 636.819 276.769 635.127 276.769C633.435 276.769 631.743 275.496 631.743 274.222C631.743 272.949 633.435 271.675 635.127 271.675C636.819 271.675 638.511 272.949 638.511 274.222Z" fill="white"/>
<path opacity="0.7" d="M670.096 235.168C670.096 236.017 668.968 236.866 667.84 236.866C666.712 236.866 665.584 236.017 665.584 235.168C665.584 234.319 666.712 233.47 667.84 233.47C669.532 233.47 670.096 234.319 670.096 235.168Z" fill="white"/>
<path opacity="0.7" d="M709.012 169.371C709.012 170.22 707.884 171.069 706.756 171.069C705.628 171.069 704.5 170.22 704.5 169.371C704.5 168.522 705.628 167.673 706.756 167.673C708.448 167.673 709.012 168.522 709.012 169.371Z" fill="white"/>
<path opacity="0.7" d="M690.4 283.561C690.4 284.41 689.272 285.259 688.144 285.259C687.016 285.259 685.888 284.41 685.888 283.561C685.888 282.712 687.016 281.863 688.144 281.863C689.272 281.863 690.4 282.712 690.4 283.561Z" fill="white"/>
<path opacity="0.7" d="M728.754 292.051C728.754 292.9 728.19 293.324 727.062 293.324C725.934 293.324 725.37 292.9 725.37 292.051C725.37 291.202 725.934 290.777 727.062 290.777C727.626 290.777 728.754 291.626 728.754 292.051Z" fill="white"/>
<path opacity="0.7" d="M892.887 242.809C892.887 242.385 893.451 241.96 894.015 241.96C894.579 241.96 895.143 242.385 895.143 242.809C895.143 243.234 894.579 243.658 894.015 243.658C893.451 244.083 892.887 243.658 892.887 242.809Z" fill="white"/>
<path opacity="0.7" d="M859.046 150.694C859.046 150.269 859.61 149.845 860.174 149.845C860.738 149.845 861.302 150.269 861.302 150.694C861.302 151.118 860.738 151.543 860.174 151.543C859.61 151.543 859.046 151.543 859.046 150.694Z" fill="white"/>
<path opacity="0.7" d="M774.441 262.336C774.441 261.912 775.005 261.487 775.569 261.487C776.134 261.487 776.698 261.912 776.698 262.336C776.698 262.761 776.134 263.185 775.569 263.185C775.005 263.185 774.441 262.761 774.441 262.336Z" fill="white"/>
<path opacity="0.7" d="M788.542 157.485C788.542 156.212 790.234 154.938 791.926 154.938C793.618 154.938 795.31 156.212 795.31 157.485C795.31 158.759 793.618 160.032 791.926 160.032C790.234 160.032 788.542 158.759 788.542 157.485Z" fill="white"/>
<path opacity="0.7" d="M888.376 186.351C888.376 185.502 889.504 184.653 890.632 184.653C891.76 184.653 892.888 185.502 892.888 186.351C892.888 187.2 891.76 188.049 890.632 188.049C889.504 188.049 888.376 187.2 888.376 186.351Z" fill="white"/>
<path opacity="0.7" d="M865.814 321.341C865.814 320.917 866.379 320.492 866.943 320.492C867.507 320.492 868.071 320.917 868.071 321.341C868.071 321.766 867.507 322.19 866.943 322.19C866.379 322.19 865.814 321.766 865.814 321.341Z" fill="white"/>
<path opacity="0.7" d="M888.376 412.184C888.376 411.335 889.504 410.486 890.632 410.486C891.76 410.486 892.888 411.335 892.888 412.184C892.888 413.033 891.76 413.882 890.632 413.882C889.504 413.882 888.376 413.457 888.376 412.184Z" fill="white"/>
<path opacity="0.7" d="M366.649 174.04C366.649 173.616 367.213 173.191 367.777 173.191C368.341 173.191 368.905 173.616 368.905 174.04C368.905 174.465 368.341 174.889 367.777 174.889C367.213 174.889 366.649 174.465 366.649 174.04Z" fill="white"/>
<path opacity="0.7" d="M791.362 204.604C791.362 203.755 792.49 202.906 793.618 202.906C794.747 202.906 795.875 203.755 795.875 204.604C795.875 205.453 794.747 206.302 793.618 206.302C792.49 206.302 791.362 205.453 791.362 204.604Z" fill="white"/>
<path opacity="0.7" d="M736.65 148.146C736.65 147.297 737.778 146.448 738.906 146.448C740.035 146.448 741.163 147.297 741.163 148.146C741.163 148.995 740.035 149.844 738.906 149.844C737.778 149.844 736.65 148.995 736.65 148.146Z" fill="white"/>
<path opacity="0.7" d="M736.65 374.404C736.65 373.555 737.778 372.706 738.906 372.706C740.035 372.706 741.163 373.555 741.163 374.404C741.163 375.253 740.035 376.102 738.906 376.102C737.214 376.102 736.65 375.253 736.65 374.404Z" fill="white"/>
<path opacity="0.7" d="M743.42 329.832C743.42 328.558 745.112 327.285 746.804 327.285C748.496 327.285 750.188 328.558 750.188 329.832C750.188 331.105 748.496 332.379 746.804 332.379C744.548 331.954 743.42 331.105 743.42 329.832Z" fill="white"/>
<path opacity="0.7" d="M1163.62 323.039C1163.62 323.888 1163.05 324.313 1161.93 324.313C1160.8 324.313 1160.23 323.888 1160.23 323.039C1160.23 322.19 1160.8 321.766 1161.93 321.766C1162.49 321.766 1163.62 322.19 1163.62 323.039Z" fill="white"/>
<path opacity="0.7" d="M1127.52 320.068C1127.52 320.492 1126.96 320.917 1126.4 320.917C1125.83 320.917 1125.27 320.492 1125.27 320.068C1125.27 319.643 1125.83 319.219 1126.4 319.219C1126.96 319.219 1127.52 319.643 1127.52 320.068Z" fill="white"/>
<path opacity="0.7" d="M1232.99 323.04C1232.99 323.464 1232.43 323.889 1231.87 323.889C1231.3 323.889 1230.74 323.464 1230.74 323.04C1230.74 322.615 1231.3 322.191 1231.87 322.191C1232.43 321.766 1232.99 322.191 1232.99 323.04Z" fill="white"/>
<path opacity="0.7" d="M1161.37 412.184C1161.37 412.608 1160.8 413.033 1160.24 413.033C1159.67 413.033 1159.11 412.608 1159.11 412.184C1159.11 411.759 1159.67 411.335 1160.24 411.335C1160.8 411.335 1161.37 411.759 1161.37 412.184Z" fill="white"/>
<path opacity="0.7" d="M274.145 193.143C274.145 193.567 273.581 193.992 273.017 193.992C272.453 193.992 271.889 193.567 271.889 193.143C271.889 192.718 272.453 192.294 273.017 192.294C273.581 191.869 274.145 192.294 274.145 193.143Z" fill="white"/>
<path opacity="0.7" d="M1371.75 355.726C1371.75 356.15 1371.18 356.575 1370.62 356.575C1370.06 356.575 1369.49 356.15 1369.49 355.726C1369.49 355.301 1370.06 354.877 1370.62 354.877C1371.18 354.452 1371.75 354.877 1371.75 355.726Z" fill="white"/>
<path opacity="0.7" d="M1245.4 300.965C1245.4 301.39 1244.84 301.814 1244.28 301.814C1243.71 301.814 1243.15 301.39 1243.15 300.965C1243.15 300.541 1243.71 300.116 1244.28 300.116C1244.84 300.116 1245.4 300.541 1245.4 300.965Z" fill="white"/>
<path opacity="0.7" d="M1119.06 278.467C1119.06 278.892 1118.5 279.316 1117.94 279.316C1117.37 279.316 1116.81 278.892 1116.81 278.467C1116.81 278.043 1117.37 277.618 1117.94 277.618C1118.5 277.618 1119.06 278.043 1119.06 278.467Z" fill="white"/>
<path opacity="0.7" d="M1098.19 335.35C1098.19 336.199 1097.63 336.623 1096.5 336.623C1095.37 336.623 1094.81 336.199 1094.81 335.35C1094.81 334.501 1095.37 334.076 1096.5 334.076C1097.06 334.076 1098.19 334.501 1098.19 335.35Z" fill="white"/>
<path opacity="0.7" d="M123.549 172.343C123.549 173.616 121.857 174.89 120.164 174.89C118.472 174.89 116.78 173.616 116.78 172.343C116.78 171.069 118.472 169.796 120.164 169.796C122.421 170.22 123.549 171.069 123.549 172.343Z" fill="white"/>
<path opacity="0.7" d="M1002.87 300.966C1002.87 301.815 1001.75 302.664 1000.62 302.664C999.49 302.664 998.362 301.815 998.362 300.966C998.362 300.117 999.49 299.268 1000.62 299.268C1001.75 299.268 1002.87 300.117 1002.87 300.966Z" fill="white"/>
<path opacity="0.7" d="M1093.68 290.353C1093.68 291.202 1092.55 292.051 1091.42 292.051C1090.3 292.051 1089.17 291.202 1089.17 290.353C1089.17 289.504 1090.3 288.655 1091.42 288.655C1092.55 288.655 1093.68 289.504 1093.68 290.353Z" fill="white"/>
<path opacity="0.7" d="M1016.41 132.016C1016.41 132.44 1015.85 132.865 1015.28 132.865C1014.72 132.865 1014.15 132.44 1014.15 132.016C1014.15 131.591 1014.72 131.167 1015.28 131.167C1015.85 130.742 1016.41 131.167 1016.41 132.016Z" fill="white"/>
<path opacity="0.7" d="M1251.04 170.644C1251.04 171.069 1250.48 171.493 1249.92 171.493C1249.35 171.493 1248.79 171.069 1248.79 170.644C1248.79 170.22 1249.35 169.795 1249.92 169.795C1250.48 169.371 1251.04 169.795 1251.04 170.644Z" fill="white"/>
<path opacity="0.7" d="M1161.37 185.927C1161.37 186.352 1160.8 186.776 1160.24 186.776C1159.67 186.776 1159.11 186.352 1159.11 185.927C1159.11 185.503 1159.67 185.078 1160.24 185.078C1160.8 185.078 1161.37 185.503 1161.37 185.927Z" fill="white"/>
<path opacity="0.7" d="M1154.6 241.96C1154.6 242.385 1154.03 242.809 1153.47 242.809C1152.9 242.809 1152.34 242.385 1152.34 241.96C1152.34 241.536 1152.9 241.111 1153.47 241.111C1154.03 241.111 1154.6 241.536 1154.6 241.96Z" fill="white"/>
<path opacity="0.7" d="M1095.94 165.551C1095.94 165.975 1095.37 166.4 1094.81 166.4C1094.24 166.4 1093.68 165.975 1093.68 165.551C1093.68 165.126 1094.24 164.702 1094.81 164.702C1095.37 164.277 1095.94 164.702 1095.94 165.551Z" fill="white"/>
<path opacity="0.7" d="M1211 236.867C1211 237.291 1210.44 237.716 1209.87 237.716C1209.31 237.716 1208.74 237.291 1208.74 236.867C1208.74 236.442 1209.31 236.018 1209.87 236.018C1210.44 236.018 1211 236.442 1211 236.867Z" fill="white"/>
<path opacity="0.7" d="M1066.04 144.75C1066.04 145.174 1065.48 145.599 1064.92 145.599C1064.35 145.599 1063.79 145.174 1063.79 144.75C1063.79 144.325 1064.35 143.901 1064.92 143.901C1065.48 143.901 1066.04 144.325 1066.04 144.75Z" fill="white"/>
<path opacity="0.7" d="M1132.03 150.694C1132.03 151.543 1130.91 152.392 1129.78 152.392C1128.65 152.392 1127.52 151.543 1127.52 150.694C1127.52 149.845 1128.65 148.996 1129.78 148.996C1130.91 148.996 1132.03 149.845 1132.03 150.694Z" fill="white"/>
<path opacity="0.7" d="M1112.86 240.262C1112.86 241.111 1111.73 241.96 1110.6 241.96C1109.48 241.96 1108.35 241.111 1108.35 240.262C1108.35 239.413 1109.48 238.564 1110.6 238.564C1111.73 238.564 1112.86 239.413 1112.86 240.262Z" fill="white"/>
<path opacity="0.7" d="M1075.07 217.763C1075.07 218.612 1073.94 219.461 1072.81 219.461C1071.68 219.461 1070.56 218.612 1070.56 217.763C1070.56 216.914 1071.68 216.065 1072.81 216.065C1073.94 216.065 1075.07 216.49 1075.07 217.763Z" fill="white"/>
<path opacity="0.7" d="M984.257 188.898C984.257 189.747 983.129 190.596 982.001 190.596C980.873 190.596 979.745 189.747 979.745 188.898C979.745 188.049 980.873 187.2 982.001 187.2C983.129 187.2 984.257 187.625 984.257 188.898Z" fill="white"/>
<path opacity="0.7" d="M1044.05 178.285C1044.05 179.134 1043.48 179.559 1042.36 179.559C1041.23 179.559 1040.66 179.134 1040.66 178.285C1040.66 177.436 1041.23 177.012 1042.36 177.012C1043.48 177.012 1044.05 177.861 1044.05 178.285Z" fill="white"/>
<path opacity="0.7" d="M1145.57 345.537C1145.57 345.962 1145.01 346.386 1144.44 346.386C1143.88 346.386 1143.31 345.962 1143.31 345.537C1143.31 345.113 1143.88 344.688 1144.44 344.688C1145.01 344.264 1145.57 344.688 1145.57 345.537Z" fill="white"/>
<path opacity="0.7" d="M811.666 376.526C811.666 377.375 810.537 378.224 809.409 378.224C808.281 378.224 807.153 377.375 807.153 376.526C807.153 375.677 808.281 374.828 809.409 374.828C810.537 374.828 811.666 375.253 811.666 376.526Z" fill="white"/>
<path opacity="0.7" d="M1251.04 414.731C1251.04 415.155 1250.48 415.58 1249.92 415.58C1249.35 415.58 1248.79 415.155 1248.79 414.731C1248.79 414.306 1249.35 413.882 1249.92 413.882C1250.48 413.882 1251.04 414.306 1251.04 414.731Z" fill="white"/>
<path opacity="0.7" d="M1022.05 423.646C1022.05 424.495 1021.49 424.919 1020.36 424.919C1019.23 424.919 1018.67 424.495 1018.67 423.646C1018.67 422.797 1019.23 422.372 1020.36 422.372C1021.49 422.372 1022.05 422.797 1022.05 423.646Z" fill="white"/>
<path opacity="0.7" d="M1357.65 219.037C1357.65 219.462 1357.08 219.886 1356.52 219.886C1355.95 219.886 1355.39 219.462 1355.39 219.037C1355.39 218.613 1355.95 218.189 1356.52 218.189C1357.08 217.764 1357.65 218.188 1357.65 219.037Z" fill="white"/>
<path opacity="0.7" d="M1396 391.384C1396 391.808 1395.44 392.233 1394.87 392.233C1394.31 392.233 1393.74 391.808 1393.74 391.384C1393.74 390.959 1394.31 390.535 1394.87 390.535C1395.44 390.535 1396 390.959 1396 391.384Z" fill="white"/>
<path opacity="0.7" d="M1279.25 323.888C1279.25 324.737 1278.12 325.586 1276.99 325.586C1275.86 325.586 1274.74 324.737 1274.74 323.888C1274.74 323.039 1275.86 322.19 1276.99 322.19C1278.12 322.19 1279.25 323.039 1279.25 323.888Z" fill="white"/>
<path opacity="0.7" d="M1302.37 300.966C1302.37 301.815 1301.24 302.664 1300.12 302.664C1298.99 302.664 1297.86 301.815 1297.86 300.966C1297.86 300.117 1298.99 299.268 1300.12 299.268C1301.81 299.268 1302.37 300.117 1302.37 300.966Z" fill="white"/>
<path opacity="0.7" d="M1283.76 414.731C1283.76 415.58 1282.63 416.429 1281.5 416.429C1280.38 416.429 1279.25 415.58 1279.25 414.731C1279.25 413.882 1280.38 413.033 1281.5 413.033C1282.63 413.033 1283.76 413.882 1283.76 414.731Z" fill="white"/>
<path opacity="0.7" d="M1393.18 290.353C1393.18 291.202 1392.05 292.051 1390.92 292.051C1389.79 292.051 1388.67 291.202 1388.67 290.353C1388.67 289.504 1389.79 288.655 1390.92 288.655C1392.61 288.655 1393.18 289.504 1393.18 290.353Z" fill="white"/>
<path opacity="0.7" d="M1344.11 404.543C1344.11 405.392 1343.54 405.816 1342.42 405.816C1341.29 405.816 1340.72 405.392 1340.72 404.543C1340.72 403.694 1341.29 403.27 1342.42 403.27C1343.54 403.27 1344.11 403.694 1344.11 404.543Z" fill="white"/>
<path opacity="0.7" d="M1347.49 269.128C1347.49 269.977 1346.93 270.402 1345.8 270.402C1344.67 270.402 1344.11 269.977 1344.11 269.128C1344.11 268.279 1344.67 267.855 1345.8 267.855C1346.93 267.855 1347.49 268.279 1347.49 269.128Z" fill="white"/>
<path opacity="0.7" d="M1371.75 581.519C1371.75 581.943 1371.18 582.368 1370.62 582.368C1370.06 582.368 1369.49 581.943 1369.49 581.519C1369.49 581.094 1370.06 580.67 1370.62 580.67C1371.18 580.245 1371.75 580.67 1371.75 581.519Z" fill="white"/>
<path opacity="0.7" d="M1357.65 444.83C1357.65 445.255 1357.08 445.679 1356.52 445.679C1355.95 445.679 1355.39 445.255 1355.39 444.83C1355.39 444.406 1355.95 443.981 1356.52 443.981C1357.08 443.557 1357.65 443.981 1357.65 444.83Z" fill="white"/>
<path opacity="0.7" d="M1279.25 549.681C1279.25 550.53 1278.12 551.379 1276.99 551.379C1275.86 551.379 1274.74 550.53 1274.74 549.681C1274.74 548.832 1275.86 547.983 1276.99 547.983C1278.12 547.983 1279.25 548.832 1279.25 549.681Z" fill="white"/>
<path opacity="0.7" d="M1302.37 526.759C1302.37 527.608 1301.24 528.457 1300.12 528.457C1298.99 528.457 1297.86 527.608 1297.86 526.759C1297.86 525.91 1298.99 525.061 1300.12 525.061C1301.81 525.061 1302.37 525.91 1302.37 526.759Z" fill="white"/>
<path opacity="0.7" d="M1393.18 516.146C1393.18 516.995 1392.05 517.844 1390.92 517.844C1389.79 517.844 1388.67 516.995 1388.67 516.146C1388.67 515.297 1389.79 514.448 1390.92 514.448C1392.61 514.448 1393.18 515.297 1393.18 516.146Z" fill="white"/>
<path opacity="0.7" d="M1347.49 494.921C1347.49 495.77 1346.93 496.195 1345.8 496.195C1344.67 496.195 1344.11 495.77 1344.11 494.921C1344.11 494.072 1344.67 493.648 1345.8 493.648C1346.93 493.648 1347.49 494.072 1347.49 494.921Z" fill="white"/>
<path opacity="0.7" d="M1316.47 132.016C1316.47 132.44 1315.91 132.865 1315.35 132.865C1314.78 132.865 1314.22 132.44 1314.22 132.016C1314.22 131.591 1314.78 131.167 1315.35 131.167C1315.91 130.742 1316.47 131.167 1316.47 132.016Z" fill="white"/>
<path opacity="0.7" d="M1396 165.551C1396 165.975 1395.44 166.4 1394.87 166.4C1394.31 166.4 1393.74 165.975 1393.74 165.551C1393.74 165.126 1394.31 164.702 1394.87 164.702C1395.44 164.277 1396 164.702 1396 165.551Z" fill="white"/>
<path opacity="0.7" d="M1366.11 144.75C1366.11 145.174 1365.54 145.599 1364.98 145.599C1364.42 145.599 1363.85 145.174 1363.85 144.75C1363.85 144.325 1364.42 143.901 1364.98 143.901C1365.54 143.901 1366.11 144.325 1366.11 144.75Z" fill="white"/>
<path opacity="0.7" d="M672.352 392.233C672.352 393.506 670.66 394.78 668.968 394.78C667.276 394.78 665.584 393.506 665.584 392.233C665.584 390.959 667.276 389.686 668.968 389.686C671.224 390.11 672.352 390.959 672.352 392.233Z" fill="white"/>
<g opacity="0.7">
<path opacity="0.7" d="M736.089 202.481L736.653 211.396L749.062 212.245L737.217 212.669L736.089 222.008L734.961 212.669L723.116 212.245L734.961 211.396L736.089 202.481Z" fill="white"/>
<path opacity="0.7" d="M741.164 208L737.216 211.82L741.164 216.065L736.088 212.669L730.447 216.49L734.959 212.245L730.447 208L736.088 211.396L741.164 208Z" fill="white"/>
</g>
<g opacity="0.7">
<path opacity="0.7" d="M608.054 184.229L609.182 193.143L621.026 193.992L609.182 194.416L608.054 203.755L606.926 194.416L595.081 193.992L606.926 193.143L608.054 184.229Z" fill="white"/>
<path opacity="0.7" d="M613.129 189.747L609.18 193.992L613.129 197.813L608.052 194.841L602.412 198.237L607.488 193.992L602.412 190.172L608.052 193.143L613.129 189.747Z" fill="white"/>
</g>
<g opacity="0.7">
<path opacity="0.7" d="M689.838 418.552L690.402 424.495L698.862 425.344H690.402L689.838 432.136L689.274 425.344H680.813L689.274 424.495L689.838 418.552Z" fill="white"/>
<path opacity="0.7" d="M693.224 422.372L690.404 424.919L693.224 427.891L689.84 425.344L685.892 427.891L689.276 424.919L685.892 422.372L689.84 424.495L693.224 422.372Z" fill="white"/>
</g>
<g opacity="0.7">
<path opacity="0.7" d="M408.386 171.918L408.95 177.861L417.41 178.71H409.514L408.386 185.502L407.822 178.71H399.361L407.822 177.861L408.386 171.918Z" fill="white"/>
<path opacity="0.7" d="M412.336 175.738L409.516 178.285L412.336 181.257L408.388 179.134L404.439 181.257L407.824 178.71L404.439 175.738L408.388 177.861L412.336 175.738Z" fill="white"/>
</g>
<g opacity="0.7">
<path opacity="0.7" d="M932.934 165.125L933.498 171.068L941.958 171.917H933.498L932.934 178.709L932.37 171.917H923.909L932.37 171.068L932.934 165.125Z" fill="white"/>
<path opacity="0.7" d="M936.884 168.945L933.499 171.492L936.884 174.464L932.935 172.341L928.987 174.464L932.371 171.917L928.987 168.945L932.935 171.068L936.884 168.945Z" fill="white"/>
</g>
<g opacity="0.7">
<path opacity="0.7" d="M1174.9 393.931L1176.03 402.421L1187.88 403.694H1176.03L1174.9 413.458L1173.78 403.694H1161.93L1173.78 402.421L1174.9 393.931Z" fill="white"/>
<path opacity="0.7" d="M1179.98 399.024L1176.03 403.269L1179.98 407.514L1174.9 404.118L1169.26 407.514L1174.34 403.269L1169.26 399.449L1174.9 402.42L1179.98 399.024Z" fill="white"/>
</g>
<g opacity="0.7">
<path opacity="0.7" d="M1256.69 171.918L1257.25 177.861L1265.71 178.71H1257.25L1256.69 185.502L1256.12 178.71H1247.66L1256.12 177.861L1256.69 171.918Z" fill="white"/>
<path opacity="0.7" d="M1260.07 175.738L1257.25 178.285L1260.07 181.257L1256.69 179.134L1252.74 181.257L1256.13 178.71L1252.74 175.738L1256.69 177.861L1260.07 175.738Z" fill="white"/>
</g>
<g opacity="0.7">
<path opacity="0.7" d="M1076.76 313.276L1077.32 319.644L1085.79 320.068L1077.32 320.493L1076.76 326.86L1076.2 320.493L1067.74 320.068L1076.2 319.644L1076.76 313.276Z" fill="white"/>
<path opacity="0.7" d="M1080.15 317.097L1077.33 320.068L1080.15 323.04L1076.76 320.493L1072.81 323.04L1076.2 320.068L1072.81 317.521L1076.76 319.644L1080.15 317.097Z" fill="white"/>
</g>
<g opacity="0.7">
<path opacity="0.7" d="M957.186 352.754L957.75 359.122L966.21 359.546L957.75 359.971L957.186 366.338L956.622 359.971L948.161 359.546L956.622 359.122L957.186 352.754Z" fill="white"/>
<path opacity="0.7" d="M960.572 356.574L957.751 359.546L960.572 362.517L957.188 359.97L953.239 362.517L956.623 359.546L953.239 356.999L957.188 359.121L960.572 356.574Z" fill="white"/>
</g>
<g opacity="0.7">
<path opacity="0.7" d="M1008.51 184.653L1009.64 190.596L1017.54 191.445H1009.64L1008.51 198.237L1007.95 191.445H999.49L1007.95 190.596L1008.51 184.653Z" fill="white"/>
<path opacity="0.7" d="M1012.46 188.474L1009.64 191.021L1012.46 193.992L1009.08 191.87L1004.57 193.992L1007.95 191.445L1004.57 188.474L1008.52 190.596L1012.46 188.474Z" fill="white"/>
</g>
<path opacity="0.7" d="M1198.44 653.547C1198.44 652.698 1199.01 652.273 1200.14 652.273C1201.26 652.273 1201.83 652.698 1201.83 653.547C1201.83 654.396 1201.26 654.82 1200.14 654.82C1199.57 654.82 1198.44 654.396 1198.44 653.547Z" fill="white"/>
<path opacity="0.7" d="M1129.16 650.724C1129.16 650.299 1129.73 649.875 1130.29 649.875C1130.86 649.875 1131.42 650.299 1131.42 650.724C1131.42 651.148 1130.86 651.573 1130.29 651.573C1129.73 651.997 1129.16 651.573 1129.16 650.724Z" fill="white"/>
<path opacity="0.7" d="M1270.89 588.009C1270.89 587.584 1271.45 587.16 1272.02 587.16C1272.58 587.16 1273.14 587.584 1273.14 588.009C1273.14 588.433 1272.58 588.858 1272.02 588.858C1271.45 588.858 1270.89 588.433 1270.89 588.009Z" fill="white"/>
<path opacity="0.7" d="M486.582 608.178C486.582 607.754 487.146 607.329 487.71 607.329C488.274 607.329 488.838 607.754 488.838 608.178C488.838 608.603 488.274 609.027 487.71 609.027C487.146 609.027 486.582 608.603 486.582 608.178Z" fill="white"/>
<path opacity="0.7" d="M1110.93 700.575C1110.93 700.151 1111.5 699.726 1112.06 699.726C1112.62 699.726 1113.19 700.151 1113.19 700.575C1113.19 701 1112.62 701.424 1112.06 701.424C1111.5 701.424 1110.93 701 1110.93 700.575Z" fill="white"/>
<path opacity="0.7" d="M1115.21 672.266C1115.21 671.842 1115.77 671.417 1116.34 671.417C1116.9 671.417 1117.46 671.842 1117.46 672.266C1117.46 672.691 1116.9 673.115 1116.34 673.115C1115.77 673.115 1115.21 672.691 1115.21 672.266Z" fill="white"/>
<path opacity="0.7" d="M1053.42 818.155C1053.42 817.306 1053.99 816.881 1055.11 816.881C1056.24 816.881 1056.81 817.306 1056.81 818.155C1056.81 819.004 1056.24 819.428 1055.11 819.428C1053.99 819.428 1053.42 818.579 1053.42 818.155Z" fill="white"/>
<path opacity="0.7" d="M1061.44 618.276C1061.44 617.427 1062.57 616.578 1063.7 616.578C1064.82 616.578 1065.95 617.427 1065.95 618.276C1065.95 619.125 1064.82 619.974 1063.7 619.974C1062 619.974 1061.44 619.125 1061.44 618.276Z" fill="white"/>
<path opacity="0.7" d="M1146.01 834.672C1146.01 833.823 1147.14 832.974 1148.27 832.974C1149.39 832.974 1150.52 833.823 1150.52 834.672C1150.52 835.521 1149.39 836.37 1148.27 836.37C1147.14 836.37 1146.01 835.945 1146.01 834.672Z" fill="white"/>
<path opacity="0.7" d="M1343.02 701.497C1343.02 700.648 1344.15 699.799 1345.27 699.799C1346.4 699.799 1347.53 700.648 1347.53 701.497C1347.53 702.346 1346.4 703.195 1345.27 703.195C1344.15 703.195 1343.02 702.346 1343.02 701.497Z" fill="white"/>
<path opacity="0.7" d="M1384.63 569.269C1384.63 568.42 1385.75 567.571 1386.88 567.571C1388.01 567.571 1389.14 568.42 1389.14 569.269C1389.14 570.118 1388.01 570.967 1386.88 570.967C1385.19 570.967 1384.63 570.118 1384.63 569.269Z" fill="white"/>
<path opacity="0.7" d="M1265.96 689.031C1265.96 688.182 1267.09 687.333 1268.21 687.333C1269.34 687.333 1270.47 688.182 1270.47 689.031C1270.47 689.88 1269.34 690.729 1268.21 690.729C1267.09 690.729 1265.96 689.88 1265.96 689.031Z" fill="white"/>
<path opacity="0.7" d="M1323.64 576.985C1323.64 576.136 1324.2 575.711 1325.33 575.711C1326.46 575.711 1327.02 576.136 1327.02 576.985C1327.02 577.834 1326.46 578.258 1325.33 578.258C1324.2 578.258 1323.64 577.834 1323.64 576.985Z" fill="white"/>
<path opacity="0.7" d="M1281.72 745.334C1281.72 744.485 1282.28 744.061 1283.41 744.061C1284.54 744.061 1285.1 744.485 1285.1 745.334C1285.1 746.183 1284.54 746.608 1283.41 746.608C1282.28 746.608 1281.72 745.759 1281.72 745.334Z" fill="white"/>
<path opacity="0.7" d="M677.255 754.469C677.255 754.044 677.819 753.62 678.383 753.62C678.947 753.62 679.511 754.044 679.511 754.469C679.511 754.893 678.947 755.318 678.383 755.318C677.819 755.318 677.255 755.318 677.255 754.469Z" fill="white"/>
<path opacity="0.7" d="M1190.95 790.53C1190.95 790.106 1191.51 789.681 1192.08 789.681C1192.64 789.681 1193.21 790.106 1193.21 790.53C1193.21 790.955 1192.64 791.379 1192.08 791.379C1191.51 791.379 1190.95 790.955 1190.95 790.53Z" fill="white"/>
<path opacity="0.7" d="M1145.01 737.661C1145.01 737.236 1145.57 736.812 1146.14 736.812C1146.7 736.812 1147.26 737.236 1147.26 737.661C1147.26 738.085 1146.7 738.51 1146.14 738.51C1145.57 738.51 1145.01 738.085 1145.01 737.661Z" fill="white"/>
<path opacity="0.7" d="M1249.11 552.695C1249.11 552.27 1249.68 551.846 1250.24 551.846C1250.81 551.846 1251.37 552.27 1251.37 552.695C1251.37 553.119 1250.81 553.544 1250.24 553.544C1249.68 553.544 1249.11 553.119 1249.11 552.695Z" fill="white"/>
<path opacity="0.7" d="M1217.73 826.942C1217.73 826.093 1218.86 825.244 1219.99 825.244C1221.12 825.244 1222.25 826.093 1222.25 826.942C1222.25 827.791 1221.12 828.64 1219.99 828.64C1218.86 828.64 1217.73 827.791 1217.73 826.942Z" fill="white"/>
<path opacity="0.7" d="M737.297 767.994C737.297 767.145 738.425 766.296 739.553 766.296C740.682 766.296 741.81 767.145 741.81 767.994C741.81 768.843 740.682 769.692 739.553 769.692C737.861 769.692 737.297 769.267 737.297 767.994Z" fill="white"/>
<path opacity="0.7" d="M1381.22 593.34C1381.22 592.491 1381.78 592.067 1382.91 592.067C1384.04 592.067 1384.6 592.491 1384.6 593.34C1384.6 594.189 1384.04 594.614 1382.91 594.614C1381.78 594.614 1381.22 594.189 1381.22 593.34Z" fill="white"/>
<path opacity="0.7" d="M1120.35 584.142C1120.35 582.868 1122.04 581.595 1123.74 581.595C1125.43 581.595 1127.12 582.868 1127.12 584.142C1127.12 585.415 1125.43 586.689 1123.74 586.689C1122.04 586.264 1120.35 585.415 1120.35 584.142Z" fill="white"/>
<path opacity="0.7" d="M1218.06 631.786C1218.06 631.362 1218.62 630.937 1219.19 630.937C1219.75 630.937 1220.32 631.362 1220.32 631.786C1220.32 632.211 1219.75 632.635 1219.19 632.635C1218.62 633.06 1218.06 632.635 1218.06 631.786Z" fill="white"/>
<path opacity="0.7" d="M1153.83 558.197C1153.83 557.773 1154.39 557.348 1154.95 557.348C1155.52 557.348 1156.08 557.773 1156.08 558.197C1156.08 558.622 1155.52 559.046 1154.95 559.046C1154.39 559.046 1153.83 558.622 1153.83 558.197Z" fill="white"/>
<path opacity="0.7" d="M602.909 632.434C602.909 632.01 603.473 631.585 604.037 631.585C604.601 631.585 605.165 632.01 605.165 632.434C605.165 632.859 604.601 633.283 604.037 633.283C603.473 633.283 602.909 632.859 602.909 632.434Z" fill="white"/>
<path opacity="0.7" d="M575.663 539.085C575.663 538.661 576.227 538.236 576.791 538.236C577.355 538.236 577.919 538.661 577.919 539.085C577.919 539.51 577.355 539.934 576.791 539.934C576.227 539.934 575.663 539.51 575.663 539.085Z" fill="white"/>
<path opacity="0.7" d="M745.364 551.468C745.364 551.044 745.928 550.619 746.492 550.619C747.056 550.619 747.62 551.044 747.62 551.468C747.62 551.893 747.056 552.317 746.492 552.317C745.928 552.317 745.364 551.893 745.364 551.468Z" fill="white"/>
<path opacity="0.7" d="M505.615 578.765C505.615 578.34 506.179 577.916 506.743 577.916C507.307 577.916 507.871 578.34 507.871 578.765C507.871 579.189 507.307 579.614 506.743 579.614C506.179 580.038 505.615 579.614 505.615 578.765Z" fill="white"/>
<path opacity="0.7" d="M602.442 575.497C602.442 574.648 603.57 573.799 604.698 573.799C605.826 573.799 606.954 574.648 606.954 575.497C606.954 576.346 605.826 577.195 604.698 577.195C603.57 577.195 602.442 576.346 602.442 575.497Z" fill="white"/>
<path opacity="0.7" d="M634.589 663.518C634.589 662.669 635.717 661.82 636.845 661.82C637.974 661.82 639.102 662.669 639.102 663.518C639.102 664.367 637.974 665.216 636.845 665.216C635.717 665.216 634.589 664.367 634.589 663.518Z" fill="white"/>
<path opacity="0.7" d="M606.175 530.965C606.175 530.541 606.74 530.116 607.304 530.116C607.868 530.116 608.432 530.541 608.432 530.965C608.432 531.39 607.868 531.814 607.304 531.814C606.74 531.814 606.175 531.39 606.175 530.965Z" fill="white"/>
<path opacity="0.7" d="M559.581 765.017C559.581 764.593 560.145 764.168 560.709 764.168C561.273 764.168 561.837 764.593 561.837 765.017C561.837 765.442 561.273 765.866 560.709 765.866C560.145 765.866 559.581 765.442 559.581 765.017Z" fill="white"/>
<path opacity="0.7" d="M570.324 709.338C570.324 708.913 570.888 708.489 571.452 708.489C572.016 708.489 572.58 708.913 572.58 709.338C572.58 709.762 572.016 710.187 571.452 710.187C570.888 710.187 570.324 709.762 570.324 709.338Z" fill="white"/>
<path opacity="0.7" d="M623.459 788.004C623.459 787.58 624.023 787.155 624.587 787.155C625.151 787.155 625.715 787.58 625.715 788.004C625.715 788.429 625.151 788.853 624.587 788.853C624.023 789.277 623.459 788.853 623.459 788.004Z" fill="white"/>
<path opacity="0.7" d="M586.361 801.429C586.361 800.58 587.489 799.731 588.617 799.731C589.745 799.731 590.873 800.58 590.873 801.429C590.873 802.278 589.745 803.127 588.617 803.127C587.489 803.127 586.361 802.278 586.361 801.429Z" fill="white"/>
<path opacity="0.7" d="M690.067 677.662C690.067 676.813 691.195 675.964 692.323 675.964C693.451 675.964 694.579 676.813 694.579 677.662C694.579 678.511 693.451 679.36 692.323 679.36C691.195 679.36 690.067 678.511 690.067 677.662Z" fill="white"/>
<path opacity="0.7" d="M724.062 612.674C724.062 612.249 724.626 611.825 725.19 611.825C725.754 611.825 726.318 612.249 726.318 612.674C726.318 613.098 725.754 613.523 725.19 613.523C724.626 613.523 724.062 613.098 724.062 612.674Z" fill="white"/>
<path opacity="0.7" d="M1346.96 558.797C1346.96 557.948 1347.52 557.524 1348.65 557.524C1349.78 557.524 1350.34 557.948 1350.34 558.797C1350.34 559.646 1349.78 560.071 1348.65 560.071C1347.52 560.071 1346.96 559.646 1346.96 558.797Z" fill="white"/>
<path opacity="0.7" d="M896.05 640.546C896.05 639.272 897.742 637.999 899.434 637.999C901.126 637.999 902.818 639.272 902.818 640.546C902.818 641.819 901.126 643.093 899.434 643.093C897.742 642.668 896.05 641.819 896.05 640.546Z" fill="white"/>
<path opacity="0.7" d="M935.209 645.862C935.209 645.437 935.773 645.013 936.337 645.013C936.901 645.013 937.465 645.437 937.465 645.862C937.465 646.286 936.901 646.711 936.337 646.711C935.773 646.711 935.209 646.286 935.209 645.862Z" fill="white"/>
<path opacity="0.7" d="M997.297 749.547C997.297 749.122 997.861 748.698 998.425 748.698C998.989 748.698 999.553 749.122 999.553 749.547C999.553 749.971 998.989 750.396 998.425 750.396C997.861 750.82 997.297 750.396 997.297 749.547Z" fill="white"/>
<path opacity="0.7" d="M907.401 552.49C907.401 552.066 907.965 551.641 908.529 551.641C909.093 551.641 909.657 552.066 909.657 552.49C909.657 552.915 909.093 553.339 908.529 553.339C907.965 553.339 907.401 552.915 907.401 552.49Z" fill="white"/>
<path opacity="0.7" d="M971.255 575.901C971.255 575.477 971.819 575.052 972.383 575.052C972.947 575.052 973.511 575.477 973.511 575.901C973.511 576.326 972.947 576.75 972.383 576.75C971.819 576.75 971.255 576.326 971.255 575.901Z" fill="white"/>
<path opacity="0.7" d="M824.474 535.111C824.474 534.686 825.038 534.262 825.602 534.262C826.166 534.262 826.73 534.686 826.73 535.111C826.73 535.535 826.166 535.96 825.602 535.96C825.038 535.96 824.474 535.535 824.474 535.111Z" fill="white"/>
<path opacity="0.7" d="M1000.22 597.477C1000.22 597.052 1000.78 596.628 1001.34 596.628C1001.91 596.628 1002.47 597.052 1002.47 597.477C1002.47 597.901 1001.91 598.326 1001.34 598.326C1000.78 598.75 1000.22 598.326 1000.22 597.477Z" fill="white"/>
<path opacity="0.7" d="M815.574 660.158C815.574 659.733 816.138 659.309 816.702 659.309C817.266 659.309 817.83 659.733 817.83 660.158C817.83 660.582 817.266 661.007 816.702 661.007C816.138 661.007 815.574 660.582 815.574 660.158Z" fill="white"/>
<path opacity="0.7" d="M940.7 687.745C940.7 687.32 941.264 686.896 941.828 686.896C942.392 686.896 942.956 687.32 942.956 687.745C942.956 688.169 942.392 688.594 941.828 688.594C941.264 688.594 940.7 688.169 940.7 687.745Z" fill="white"/>
<path opacity="0.7" d="M1083.04 648.056C1083.04 647.207 1084.17 646.358 1085.3 646.358C1086.42 646.358 1087.55 647.207 1087.55 648.056C1087.55 648.905 1086.42 649.754 1085.3 649.754C1084.17 649.754 1083.04 648.905 1083.04 648.056Z" fill="white"/>
<path opacity="0.7" d="M1058.32 670.012C1058.32 669.163 1059.45 668.314 1060.58 668.314C1061.7 668.314 1062.83 669.163 1062.83 670.012C1062.83 670.861 1061.7 671.71 1060.58 671.71C1059.45 671.71 1058.32 670.861 1058.32 670.012Z" fill="white"/>
<path opacity="0.7" d="M1084.99 557.161C1084.99 556.312 1086.12 555.463 1087.25 555.463C1088.38 555.463 1089.5 556.312 1089.5 557.161C1089.5 558.01 1088.38 558.859 1087.25 558.859C1086.12 558.859 1084.99 558.01 1084.99 557.161Z" fill="white"/>
<path opacity="0.7" d="M966.89 676.946C966.89 676.097 968.018 675.248 969.146 675.248C970.274 675.248 971.402 676.097 971.402 676.946C971.402 677.795 970.274 678.644 969.146 678.644C968.018 678.644 966.89 677.795 966.89 676.946Z" fill="white"/>
<path opacity="0.7" d="M1024.01 564.877C1024.01 564.028 1024.57 563.603 1025.7 563.603C1026.83 563.603 1027.39 564.028 1027.39 564.877C1027.39 565.726 1026.83 566.15 1025.7 566.15C1024.57 566.15 1024.01 565.726 1024.01 564.877Z" fill="white"/>
<path opacity="0.7" d="M856.638 607.07C856.638 605.796 858.33 604.523 860.022 604.523C861.714 604.523 863.406 605.796 863.406 607.07C863.406 608.343 861.714 609.617 860.022 609.617C857.766 609.617 856.638 608.768 856.638 607.07Z" fill="white"/>
<path opacity="0.7" d="M1011 699.96C1011 699.111 1011.56 698.687 1012.69 698.687C1013.82 698.687 1014.38 699.111 1014.38 699.96C1014.38 700.809 1013.82 701.234 1012.69 701.234C1012.13 701.234 1011 700.809 1011 699.96Z" fill="white"/>
<path opacity="0.7" d="M1032.23 838.106C1032.23 837.681 1032.79 837.257 1033.35 837.257C1033.92 837.257 1034.48 837.681 1034.48 838.106C1034.48 838.53 1033.92 838.955 1033.35 838.955C1032.79 839.379 1032.23 838.955 1032.23 838.106Z" fill="white"/>
<path opacity="0.7" d="M1037.35 750.315C1037.35 749.891 1037.92 749.466 1038.48 749.466C1039.05 749.466 1039.61 749.891 1039.61 750.315C1039.61 750.74 1039.05 751.164 1038.48 751.164C1037.92 751.164 1037.35 750.74 1037.35 750.315Z" fill="white"/>
<path opacity="0.7" d="M891.319 778.422C891.319 777.998 891.883 777.573 892.447 777.573C893.011 777.573 893.575 777.998 893.575 778.422C893.575 778.847 893.011 779.271 892.447 779.271C891.883 779.271 891.319 778.847 891.319 778.422Z" fill="white"/>
<path opacity="0.7" d="M902.057 722.742C902.057 722.318 902.621 721.893 903.185 721.893C903.749 721.893 904.313 722.318 904.313 722.742C904.313 723.167 903.749 723.591 903.185 723.591C902.621 723.591 902.057 723.167 902.057 722.742Z" fill="white"/>
<path opacity="0.7" d="M955.197 801.41C955.197 800.985 955.761 800.561 956.325 800.561C956.889 800.561 957.453 800.985 957.453 801.41C957.453 801.834 956.889 802.259 956.325 802.259C955.761 802.683 955.197 802.259 955.197 801.41Z" fill="white"/>
<path opacity="0.7" d="M846.501 724.704C845.878 724.704 845.373 725.084 845.373 725.553C845.373 726.022 845.878 726.402 846.501 726.402C847.124 726.402 847.629 726.022 847.629 725.553C847.629 725.084 847.124 724.704 846.501 724.704Z" fill="white"/>
<path opacity="0.7" d="M983.574 823.386C983.574 822.962 984.138 822.537 984.702 822.537C985.266 822.537 985.83 822.962 985.83 823.386C985.83 823.811 985.266 824.235 984.702 824.235C984.138 824.235 983.574 823.811 983.574 823.386Z" fill="white"/>
<path opacity="0.7" d="M1359.67 848.453C1359.67 847.18 1361.36 845.906 1363.06 845.906C1364.75 845.906 1366.44 847.18 1366.44 848.453C1366.44 849.727 1364.75 851 1363.06 851C1360.8 851 1359.67 849.727 1359.67 848.453Z" fill="white"/>
<path opacity="0.7" d="M918.661 814.857C918.661 814.008 919.789 813.159 920.917 813.159C922.045 813.159 923.173 814.008 923.173 814.857C923.173 815.706 922.045 816.555 920.917 816.555C919.789 816.555 918.661 815.706 918.661 814.857Z" fill="white"/>
<path opacity="0.7" d="M944.178 726.191C944.178 725.342 945.306 724.493 946.434 724.493C947.562 724.493 948.69 725.342 948.69 726.191C948.69 727.04 947.562 727.889 946.434 727.889C944.742 727.889 944.178 727.04 944.178 726.191Z" fill="white"/>
<path opacity="0.7" d="M980.316 750.182C980.316 749.333 981.444 748.484 982.572 748.484C983.7 748.484 984.828 749.333 984.828 750.182C984.828 751.031 983.7 751.88 982.572 751.88C980.88 751.88 980.316 751.455 980.316 750.182Z" fill="white"/>
<path opacity="0.7" d="M1068.94 782.67C1068.94 781.821 1070.07 780.972 1071.2 780.972C1072.32 780.972 1073.45 781.821 1073.45 782.67C1073.45 783.519 1072.32 784.368 1071.2 784.368C1070.07 784.368 1068.94 783.944 1068.94 782.67Z" fill="white"/>
<path opacity="0.7" d="M1007.93 790.81C1007.93 789.961 1008.49 789.537 1009.62 789.537C1010.75 789.537 1011.31 789.961 1011.31 790.81C1011.31 791.659 1010.75 792.083 1009.62 792.083C1008.49 792.083 1007.93 791.234 1007.93 790.81Z" fill="white"/>
<path opacity="0.7" d="M1040.96 731.354C1040.96 730.505 1041.53 730.08 1042.65 730.08C1043.78 730.08 1044.35 730.505 1044.35 731.354C1044.35 732.203 1043.78 732.627 1042.65 732.627C1042.09 732.627 1040.96 732.203 1040.96 731.354Z" fill="white"/>
<path opacity="0.7" d="M938.092 756.105C938.092 755.256 938.656 754.831 939.784 754.831C940.913 754.831 941.477 755.256 941.477 756.105C941.477 756.954 940.913 757.378 939.784 757.378C939.22 757.378 938.092 756.954 938.092 756.105Z" fill="white"/>
<path opacity="0.7" d="M1078.87 738.481C1078.87 737.207 1080.56 735.934 1082.25 735.934C1083.94 735.934 1085.64 737.207 1085.64 738.481C1085.64 739.754 1083.94 741.028 1082.25 741.028C1080 741.028 1078.87 739.754 1078.87 738.481Z" fill="white"/>
<path opacity="0.7" d="M923.602 586.729C923.602 586.304 924.166 585.88 924.73 585.88C925.294 585.88 925.858 586.304 925.858 586.729C925.858 587.153 925.294 587.578 924.73 587.578C924.166 587.578 923.602 587.153 923.602 586.729Z" fill="white"/>
<path opacity="0.7" d="M1047.89 546.712C1047.89 545.863 1048.46 545.438 1049.59 545.438C1050.71 545.438 1051.28 545.863 1051.28 546.712C1051.28 547.561 1050.71 547.985 1049.59 547.985C1048.46 547.985 1047.89 547.561 1047.89 546.712Z" fill="white"/>
<path opacity="0.7" d="M859.166 793.703C859.166 793.278 859.73 792.854 860.294 792.854C860.858 792.854 861.422 793.278 861.422 793.703C861.422 794.127 860.858 794.552 860.294 794.552C859.73 794.552 859.166 794.127 859.166 793.703Z" fill="white"/>
<path opacity="0.7" d="M880.128 689.64C880.128 688.366 881.82 687.093 883.512 687.093C885.204 687.093 886.896 688.366 886.896 689.64C886.896 690.913 885.204 692.187 883.512 692.187C881.82 692.187 880.128 690.913 880.128 689.64Z" fill="white"/>
<path opacity="0.7" d="M845.814 727.317C845.814 726.468 846.942 725.619 848.07 725.619C849.198 725.619 850.326 726.468 850.326 727.317C850.326 728.166 849.198 729.015 848.07 729.015C846.378 729.015 845.814 728.166 845.814 727.317Z" fill="white"/>
<path opacity="0.7" d="M802.278 791.449C802.278 790.6 803.406 789.751 804.534 789.751C805.662 789.751 806.79 790.6 806.79 791.449C806.79 792.298 805.662 793.147 804.534 793.147C802.842 793.147 802.278 792.298 802.278 791.449Z" fill="white"/>
<path opacity="0.7" d="M828.98 678.175C828.98 677.326 830.108 676.477 831.236 676.477C832.364 676.477 833.492 677.326 833.492 678.175C833.492 679.024 832.364 679.873 831.236 679.873C830.108 679.873 828.98 679.024 828.98 678.175Z" fill="white"/>
<path opacity="0.7" d="M791.285 668.126C791.285 667.277 791.849 666.853 792.977 666.853C794.105 666.853 794.669 667.277 794.669 668.126C794.669 668.975 794.105 669.4 792.977 669.4C792.413 669.4 791.285 668.551 791.285 668.126Z" fill="white"/>
<path opacity="0.7" d="M623.897 710.561C623.897 710.985 623.333 711.41 622.769 711.41C622.205 711.41 621.641 710.985 621.641 710.561C621.641 710.136 622.205 709.712 622.769 709.712C623.333 709.287 623.897 709.712 623.897 710.561Z" fill="white"/>
<path opacity="0.7" d="M651.137 803.91C651.137 804.334 650.573 804.759 650.009 804.759C649.445 804.759 648.881 804.334 648.881 803.91C648.881 803.485 649.445 803.061 650.009 803.061C650.573 803.061 651.137 803.061 651.137 803.91Z" fill="white"/>
<path opacity="0.7" d="M743.555 695.841C743.555 696.265 742.991 696.69 742.427 696.69C741.863 696.69 741.298 696.265 741.298 695.841C741.298 695.416 741.863 694.992 742.427 694.992C742.991 694.992 743.555 695.416 743.555 695.841Z" fill="white"/>
<path opacity="0.7" d="M722.025 799.882C722.025 801.155 720.333 802.429 718.641 802.429C716.949 802.429 715.257 801.155 715.257 799.882C715.257 798.608 716.949 797.335 718.641 797.335C720.333 797.335 722.025 798.608 722.025 799.882Z" fill="white"/>
<path opacity="0.7" d="M624.385 767.074C624.385 767.923 623.257 768.772 622.129 768.772C621.001 768.772 619.872 767.923 619.872 767.074C619.872 766.225 621.001 765.376 622.129 765.376C623.257 765.376 624.385 766.225 624.385 767.074Z" fill="white"/>
<path opacity="0.7" d="M656.507 633.234C656.507 633.659 655.943 634.083 655.379 634.083C654.815 634.083 654.251 633.659 654.251 633.234C654.251 632.81 654.815 632.385 655.379 632.385C655.943 632.385 656.507 632.81 656.507 633.234Z" fill="white"/>
<path opacity="0.7" d="M640.436 541.566C640.436 542.415 639.307 543.264 638.179 543.264C637.051 543.264 635.923 542.415 635.923 541.566C635.923 540.717 637.051 539.868 638.179 539.868C639.307 539.868 640.436 540.292 640.436 541.566Z" fill="white"/>
<path opacity="0.7" d="M1144.49 800.465C1144.49 800.889 1143.92 801.314 1143.36 801.314C1142.79 801.314 1142.23 800.889 1142.23 800.465C1142.23 800.04 1142.79 799.616 1143.36 799.616C1143.92 799.616 1144.49 800.04 1144.49 800.465Z" fill="white"/>
<path opacity="0.7" d="M722.557 752.762C722.557 753.611 721.429 754.46 720.3 754.46C719.172 754.46 718.044 753.611 718.044 752.762C718.044 751.913 719.172 751.064 720.3 751.064C721.429 751.064 722.557 751.913 722.557 752.762Z" fill="white"/>
<path opacity="0.7" d="M773.177 811.347C773.177 812.196 772.049 813.045 770.921 813.045C769.793 813.045 768.665 812.196 768.665 811.347C768.665 810.498 769.793 809.649 770.921 809.649C772.049 809.649 773.177 810.498 773.177 811.347Z" fill="white"/>
<path opacity="0.7" d="M789.259 585.414C789.259 586.263 788.131 587.112 787.003 587.112C785.875 587.112 784.747 586.263 784.747 585.414C784.747 584.565 785.875 583.716 787.003 583.716C788.695 583.716 789.259 584.565 789.259 585.414Z" fill="white"/>
<path opacity="0.7" d="M779.332 629.603C779.332 630.877 777.64 632.15 775.948 632.15C774.256 632.15 772.564 630.877 772.564 629.603C772.564 628.33 774.256 627.056 775.948 627.056C778.204 627.481 779.332 628.33 779.332 629.603Z" fill="white"/>
<path opacity="0.7" d="M359.247 619.635C359.247 618.786 359.811 618.362 360.939 618.362C362.067 618.362 362.631 618.786 362.631 619.635C362.631 620.484 362.067 620.909 360.939 620.909C360.375 620.909 359.247 620.484 359.247 619.635Z" fill="white"/>
<path opacity="0.7" d="M395.079 624.036C395.079 623.611 395.643 623.187 396.207 623.187C396.771 623.187 397.335 623.611 397.335 624.036C397.335 624.46 396.771 624.885 396.207 624.885C395.643 624.885 395.079 624.46 395.079 624.036Z" fill="white"/>
<path opacity="0.7" d="M289.966 616.813C289.966 616.388 290.53 615.964 291.094 615.964C291.658 615.964 292.222 616.388 292.222 616.813C292.222 617.237 291.658 617.662 291.094 617.662C290.53 618.086 289.966 617.662 289.966 616.813Z" fill="white"/>
<path opacity="0.7" d="M367.833 530.687C367.833 530.262 368.397 529.838 368.961 529.838C369.525 529.838 370.089 530.262 370.089 530.687C370.089 531.111 369.525 531.536 368.961 531.536C368.397 531.536 367.833 531.111 367.833 530.687Z" fill="white"/>
<path opacity="0.7" d="M1238.21 785.214C1238.21 784.789 1238.77 784.365 1239.33 784.365C1239.9 784.365 1240.46 784.789 1240.46 785.214C1240.46 785.638 1239.9 786.063 1239.33 786.063C1238.77 786.487 1238.21 786.063 1238.21 785.214Z" fill="white"/>
<path opacity="0.7" d="M153.734 578.574C153.734 578.15 154.298 577.725 154.862 577.725C155.426 577.725 155.99 578.15 155.99 578.574C155.99 578.999 155.426 579.423 154.862 579.423C154.298 579.848 153.734 579.423 153.734 578.574Z" fill="white"/>
<path opacity="0.7" d="M276.012 638.355C276.012 637.93 276.576 637.506 277.14 637.506C277.704 637.506 278.268 637.93 278.268 638.355C278.268 638.779 277.704 639.204 277.14 639.204C276.576 639.204 276.012 638.779 276.012 638.355Z" fill="white"/>
<path opacity="0.7" d="M400.57 665.919C400.57 665.494 401.134 665.07 401.698 665.07C402.262 665.07 402.826 665.494 402.826 665.919C402.826 666.343 402.262 666.768 401.698 666.768C401.134 666.768 400.57 666.343 400.57 665.919Z" fill="white"/>
<path opacity="0.7" d="M425.454 609.982C425.454 609.133 426.018 608.709 427.146 608.709C428.274 608.709 428.838 609.133 428.838 609.982C428.838 610.831 428.274 611.256 427.146 611.256C426.582 611.256 425.454 610.831 425.454 609.982Z" fill="white"/>
<path opacity="0.7" d="M1387.11 812.152C1387.11 810.879 1388.8 809.605 1390.49 809.605C1392.19 809.605 1393.88 810.879 1393.88 812.152C1393.88 813.426 1392.19 814.699 1390.49 814.699C1388.24 814.275 1387.11 813.426 1387.11 812.152Z" fill="white"/>
<path opacity="0.7" d="M518.191 648.186C518.191 647.337 519.319 646.488 520.447 646.488C521.575 646.488 522.703 647.337 522.703 648.186C522.703 649.035 521.575 649.884 520.447 649.884C519.319 649.884 518.191 649.035 518.191 648.186Z" fill="white"/>
<path opacity="0.7" d="M426.76 655.119C426.76 654.27 427.888 653.421 429.016 653.421C430.144 653.421 431.272 654.27 431.272 655.119C431.272 655.968 430.144 656.817 429.016 656.817C427.888 656.817 426.76 655.968 426.76 655.119Z" fill="white"/>
<path opacity="0.7" d="M492.662 816.302C492.662 815.877 493.226 815.453 493.79 815.453C494.354 815.453 494.918 815.877 494.918 816.302C494.918 816.726 494.354 817.151 493.79 817.151C493.226 817.575 492.662 817.151 492.662 816.302Z" fill="white"/>
<path opacity="0.7" d="M261.11 768.261C261.11 767.836 261.674 767.412 262.238 767.412C262.802 767.412 263.366 767.836 263.366 768.261C263.366 768.685 262.802 769.11 262.238 769.11C261.674 769.534 261.11 769.11 261.11 768.261Z" fill="white"/>
<path opacity="0.7" d="M351.752 756.619C351.752 756.194 352.316 755.77 352.88 755.77C353.444 755.77 354.008 756.194 354.008 756.619C354.008 757.043 353.444 757.468 352.88 757.468C352.316 757.468 351.752 757.043 351.752 756.619Z" fill="white"/>
<path opacity="0.7" d="M362.493 700.939C362.493 700.515 363.057 700.09 363.621 700.09C364.185 700.09 364.749 700.515 364.749 700.939C364.749 701.364 364.185 701.788 363.621 701.788C363.057 701.788 362.493 701.364 362.493 700.939Z" fill="white"/>
<path opacity="0.7" d="M415.633 779.607C415.633 779.182 416.197 778.758 416.761 778.758C417.325 778.758 417.889 779.182 417.889 779.607C417.889 780.031 417.325 780.456 416.761 780.456C416.197 780.88 415.633 780.456 415.633 779.607Z" fill="white"/>
<path opacity="0.7" d="M305.81 703.75C305.81 703.325 306.374 702.901 306.938 702.901C307.502 702.901 308.066 703.325 308.066 703.75C308.066 704.174 307.502 704.599 306.938 704.599C306.374 704.599 305.81 704.174 305.81 703.75Z" fill="white"/>
<path opacity="0.7" d="M444.01 801.583C444.01 801.159 444.574 800.734 445.139 800.734C445.703 800.734 446.267 801.159 446.267 801.583C446.267 802.008 445.703 802.432 445.139 802.432C444.574 802.432 444.01 802.008 444.01 801.583Z" fill="white"/>
<path opacity="0.7" d="M378.536 793.031C378.536 792.182 379.664 791.333 380.792 791.333C381.92 791.333 383.048 792.182 383.048 793.031C383.048 793.88 381.92 794.729 380.792 794.729C379.664 794.729 378.536 793.88 378.536 793.031Z" fill="white"/>
<path opacity="0.7" d="M404.048 704.365C404.048 703.516 405.176 702.667 406.304 702.667C407.432 702.667 408.561 703.516 408.561 704.365C408.561 705.214 407.432 706.062 406.304 706.062C405.176 706.062 404.048 705.214 404.048 704.365Z" fill="white"/>
<path opacity="0.7" d="M440.186 728.356C440.186 727.507 441.314 726.658 442.442 726.658C443.57 726.658 444.698 727.507 444.698 728.356C444.698 729.205 443.57 730.054 442.442 730.054C441.314 730.054 440.186 729.629 440.186 728.356Z" fill="white"/>
<path opacity="0.7" d="M528.815 760.844C528.815 759.995 529.943 759.146 531.071 759.146C532.199 759.146 533.327 759.995 533.327 760.844C533.327 761.693 532.199 762.542 531.071 762.542C529.943 762.542 528.815 762.117 528.815 760.844Z" fill="white"/>
<path opacity="0.7" d="M468.357 769.006C468.357 768.157 468.921 767.733 470.049 767.733C471.177 767.733 471.741 768.157 471.741 769.006C471.741 769.855 471.177 770.28 470.049 770.28C468.921 770.28 468.357 769.431 468.357 769.006Z" fill="white"/>
<path opacity="0.7" d="M378.864 597.875C378.864 597.451 379.428 597.026 379.992 597.026C380.556 597.026 381.12 597.451 381.12 597.875C381.12 598.3 380.556 598.724 379.992 598.724C379.428 599.149 378.864 598.724 378.864 597.875Z" fill="white"/>
<path opacity="0.7" d="M714.496 580.45C714.496 579.601 715.624 578.752 716.752 578.752C717.88 578.752 719.008 579.601 719.008 580.45C719.008 581.298 717.88 582.147 716.752 582.147C715.624 582.147 714.496 581.723 714.496 580.45Z" fill="white"/>
<path opacity="0.7" d="M278.466 524.525C278.466 524.1 279.03 523.676 279.594 523.676C280.158 523.676 280.722 524.1 280.722 524.525C280.722 524.949 280.158 525.374 279.594 525.374C279.03 525.374 278.466 524.949 278.466 524.525Z" fill="white"/>
<path opacity="0.7" d="M507.763 524.886C507.763 524.037 508.327 523.612 509.455 523.612C510.583 523.612 511.147 524.037 511.147 524.886C511.147 525.735 510.583 526.159 509.455 526.159C508.327 526.159 507.763 525.735 507.763 524.886Z" fill="white"/>
<path opacity="0.7" d="M158.099 715.635C158.099 715.211 158.663 714.786 159.227 714.786C159.791 714.786 160.355 715.211 160.355 715.635C160.355 716.06 159.791 716.484 159.227 716.484C158.663 716.909 158.099 716.484 158.099 715.635Z" fill="white"/>
<path opacity="0.7" d="M132.057 541.989C132.057 541.564 132.621 541.14 133.185 541.14C133.749 541.14 134.313 541.564 134.313 541.989C134.313 542.413 133.749 542.838 133.185 542.838C132.621 542.838 132.057 542.413 132.057 541.989Z" fill="white"/>
<path opacity="0.7" d="M243.843 614.145C243.843 613.296 244.971 612.447 246.099 612.447C247.227 612.447 248.355 613.296 248.355 614.145C248.355 614.994 247.227 615.843 246.099 615.843C244.971 615.843 243.843 614.994 243.843 614.145Z" fill="white"/>
<path opacity="0.7" d="M219.123 636.101C219.123 635.252 220.252 634.403 221.38 634.403C222.508 634.403 223.636 635.252 223.636 636.101C223.636 636.95 222.508 637.799 221.38 637.799C219.688 637.799 219.123 636.95 219.123 636.101Z" fill="white"/>
<path opacity="0.7" d="M245.794 523.25C245.794 522.401 246.922 521.552 248.05 521.552C249.179 521.552 250.307 522.401 250.307 523.25C250.307 524.099 249.179 524.948 248.05 524.948C246.922 524.948 245.794 524.099 245.794 523.25Z" fill="white"/>
<path opacity="0.7" d="M127.692 643.034C127.692 642.185 128.82 641.336 129.948 641.336C131.076 641.336 132.204 642.185 132.204 643.034C132.204 643.883 131.076 644.732 129.948 644.732C128.256 644.732 127.692 643.883 127.692 643.034Z" fill="white"/>
<path opacity="0.7" d="M184.809 530.966C184.809 530.117 185.373 529.692 186.501 529.692C187.629 529.692 188.193 530.117 188.193 530.966C188.193 531.815 187.629 532.239 186.501 532.239C185.373 532.239 184.809 531.815 184.809 530.966Z" fill="white"/>
<path opacity="0.7" d="M171.803 666.049C171.803 665.2 172.367 664.775 173.495 664.775C174.623 664.775 175.188 665.2 175.188 666.049C175.188 666.898 174.623 667.322 173.495 667.322C172.367 667.322 171.803 666.898 171.803 666.049Z" fill="white"/>
<path opacity="0.7" d="M193.028 804.194C193.028 803.769 193.592 803.345 194.156 803.345C194.72 803.345 195.284 803.769 195.284 804.194C195.284 804.618 194.72 805.043 194.156 805.043C193.592 805.467 193.028 805.043 193.028 804.194Z" fill="white"/>
<path opacity="0.7" d="M116 767.498C116 767.074 116.564 766.649 117.128 766.649C117.692 766.649 118.256 767.074 118.256 767.498C118.256 767.923 117.692 768.347 117.128 768.347C116.564 768.772 116 768.347 116 767.498Z" fill="white"/>
<path opacity="0.7" d="M144.377 789.475C144.377 789.051 144.941 788.626 145.505 788.626C146.069 788.626 146.633 789.051 146.633 789.475C146.633 789.9 146.069 790.324 145.505 790.324C144.941 790.324 144.377 789.9 144.377 789.475Z" fill="white"/>
<path opacity="0.7" d="M854.723 570.433C854.723 569.159 856.415 567.886 858.107 567.886C859.799 567.886 861.491 569.159 861.491 570.433C861.491 571.706 859.799 572.979 858.107 572.979C855.851 572.555 854.723 571.706 854.723 570.433Z" fill="white"/>
<g opacity="0.7">
<path opacity="0.7" d="M778.291 757.217L777.727 748.302L765.318 747.453L777.163 747.029L778.291 737.69L779.419 747.029L791.264 747.453L779.419 748.302L778.291 757.217Z" fill="white"/>
<path opacity="0.7" d="M773.216 751.698L777.164 747.878L773.216 743.633L778.292 747.029L783.933 743.208L779.42 747.453L783.933 751.698L778.292 748.302L773.216 751.698Z" fill="white"/>
</g>
<g opacity="0.7">
<path opacity="0.7" d="M904.845 780.61L903.717 771.696L891.872 770.847L903.717 770.422L904.845 761.083L905.973 770.422L917.817 770.847L905.973 771.696L904.845 780.61Z" fill="white"/>
<path opacity="0.7" d="M899.77 775.092L903.718 770.847L899.77 767.026L904.846 769.998L910.486 766.602L905.41 770.847L910.486 774.667L904.846 771.696L899.77 775.092Z" fill="white"/>
</g>
<g opacity="0.7">
<path opacity="0.7" d="M839.621 543.319L839.057 537.376L830.597 536.527H839.057L839.621 529.735L840.185 536.527H848.646L840.185 537.376L839.621 543.319Z" fill="white"/>
<path opacity="0.7" d="M836.235 539.499L839.055 536.952L836.235 533.98L839.619 536.527L843.567 533.98L840.183 536.952L843.567 539.499L839.619 537.376L836.235 539.499Z" fill="white"/>
</g>
<g opacity="0.7">
<path opacity="0.7" d="M1103.14 800.956L1102.58 795.013L1094.12 794.164H1102.01L1103.14 787.372L1103.7 794.164H1112.16L1103.7 795.013L1103.14 800.956Z" fill="white"/>
<path opacity="0.7" d="M1099.19 797.136L1102.01 794.589L1099.19 791.617L1103.14 793.74L1107.09 791.617L1103.7 794.164L1107.09 797.136L1103.14 795.013L1099.19 797.136Z" fill="white"/>
</g>
<g opacity="0.7">
<path opacity="0.7" d="M578.862 786.572L578.298 780.629L569.838 779.78H578.298L578.862 772.988L579.426 779.78H587.887L579.426 780.629L578.862 786.572Z" fill="white"/>
<path opacity="0.7" d="M574.912 782.752L578.296 780.205L574.912 777.233L578.86 779.356L582.809 777.233L579.424 779.78L582.809 782.752L578.86 780.629L574.912 782.752Z" fill="white"/>
</g>
<g opacity="0.7">
<path opacity="0.7" d="M353.714 548.336L352.586 539.846L340.741 538.573H352.586L353.714 528.809L354.842 538.573H366.687L354.842 539.846L353.714 548.336Z" fill="white"/>
<path opacity="0.7" d="M348.639 543.242L352.587 538.997L348.639 534.752L353.715 538.148L359.355 534.752L354.279 538.997L359.355 542.818L353.715 539.846L348.639 543.242Z" fill="white"/>
</g>
<g opacity="0.7">
<path opacity="0.7" d="M256.055 766.726L255.491 760.783L247.03 759.934H255.491L256.055 753.142L256.619 759.934H265.079L256.619 760.783L256.055 766.726Z" fill="white"/>
<path opacity="0.7" d="M252.669 762.905L255.489 760.358L252.669 757.387L256.053 759.509L260.001 757.387L256.617 759.934L260.001 762.905L256.053 760.783L252.669 762.905Z" fill="white"/>
</g>
<g opacity="0.7">
<path opacity="0.7" d="M445.77 632.831L445.206 626.463L436.746 626.039L445.206 625.614L445.77 619.247L446.335 625.614L454.795 626.039L446.335 626.463L445.77 632.831Z" fill="white"/>
<path opacity="0.7" d="M442.384 629.01L445.205 626.039L442.384 623.067L445.769 625.614L449.717 623.067L446.333 626.039L449.717 628.586L445.769 626.463L442.384 629.01Z" fill="white"/>
</g>
<g opacity="0.7">
<path opacity="0.7" d="M567.981 598.234L567.417 591.866L558.957 591.442L567.417 591.017L567.981 584.65L568.545 591.017L577.006 591.442L568.545 591.866L567.981 598.234Z" fill="white"/>
<path opacity="0.7" d="M564.595 594.414L567.415 591.443L564.595 588.471L567.979 591.018L571.928 588.471L568.544 591.443L571.928 593.99L567.979 591.867L564.595 594.414Z" fill="white"/>
</g>
<path opacity="0.7" d="M1198.44 491.258C1198.44 490.409 1199.01 489.984 1200.14 489.984C1201.26 489.984 1201.83 490.409 1201.83 491.258C1201.83 492.107 1201.26 492.531 1200.14 492.531C1199.57 492.531 1198.44 492.107 1198.44 491.258Z" fill="white"/>
<path opacity="0.7" d="M1129.16 488.436C1129.16 488.011 1129.73 487.587 1130.29 487.587C1130.86 487.587 1131.42 488.011 1131.42 488.436C1131.42 488.86 1130.86 489.285 1130.29 489.285C1129.73 489.709 1129.16 489.285 1129.16 488.436Z" fill="white"/>
<path opacity="0.7" d="M486.582 445.89C486.582 445.465 487.146 445.041 487.71 445.041C488.274 445.041 488.838 445.465 488.838 445.89C488.838 446.314 488.274 446.739 487.71 446.739C487.146 446.739 486.582 446.314 486.582 445.89Z" fill="white"/>
<path opacity="0.7" d="M1115.21 509.978C1115.21 509.553 1115.77 509.129 1116.34 509.129C1116.9 509.129 1117.46 509.553 1117.46 509.978C1117.46 510.402 1116.9 510.827 1116.34 510.827C1115.77 510.827 1115.21 510.402 1115.21 509.978Z" fill="white"/>
<path opacity="0.7" d="M1061.44 455.987C1061.44 455.138 1062.57 454.289 1063.7 454.289C1064.82 454.289 1065.95 455.138 1065.95 455.987C1065.95 456.836 1064.82 457.685 1063.7 457.685C1062 457.685 1061.44 456.836 1061.44 455.987Z" fill="white"/>
<path opacity="0.7" d="M1265.96 526.742C1265.96 525.893 1267.09 525.044 1268.21 525.044C1269.34 525.044 1270.47 525.893 1270.47 526.742C1270.47 527.591 1269.34 528.44 1268.21 528.44C1267.09 528.44 1265.96 527.591 1265.96 526.742Z" fill="white"/>
<path opacity="0.7" d="M1218.06 469.498C1218.06 469.074 1218.62 468.649 1219.19 468.649C1219.75 468.649 1220.32 469.074 1220.32 469.498C1220.32 469.923 1219.75 470.347 1219.19 470.347C1218.62 470.772 1218.06 470.347 1218.06 469.498Z" fill="white"/>
<path opacity="0.7" d="M602.909 470.146C602.909 469.721 603.473 469.297 604.037 469.297C604.601 469.297 605.165 469.721 605.165 470.146C605.165 470.57 604.601 470.995 604.037 470.995C603.473 470.995 602.909 470.57 602.909 470.146Z" fill="white"/>
<path opacity="0.7" d="M634.589 501.229C634.589 500.38 635.717 499.531 636.845 499.531C637.974 499.531 639.102 500.38 639.102 501.229C639.102 502.078 637.974 502.927 636.845 502.927C635.717 502.927 634.589 502.078 634.589 501.229Z" fill="white"/>
<path opacity="0.7" d="M690.067 515.374C690.067 514.525 691.195 513.676 692.323 513.676C693.451 513.676 694.579 514.525 694.579 515.374C694.579 516.223 693.451 517.072 692.323 517.072C691.195 517.072 690.067 516.223 690.067 515.374Z" fill="white"/>
<path opacity="0.7" d="M724.062 450.385C724.062 449.961 724.626 449.536 725.19 449.536C725.754 449.536 726.318 449.961 726.318 450.385C726.318 450.81 725.754 451.234 725.19 451.234C724.626 451.234 724.062 450.81 724.062 450.385Z" fill="white"/>
<path opacity="0.7" d="M896.05 478.257C896.05 476.983 897.742 475.71 899.434 475.71C901.126 475.71 902.818 476.983 902.818 478.257C902.818 479.53 901.126 480.804 899.434 480.804C897.742 480.379 896.05 479.53 896.05 478.257Z" fill="white"/>
<path opacity="0.7" d="M935.209 483.574C935.209 483.149 935.773 482.725 936.337 482.725C936.901 482.725 937.465 483.149 937.465 483.574C937.465 483.998 936.901 484.423 936.337 484.423C935.773 484.423 935.209 483.998 935.209 483.574Z" fill="white"/>
<path opacity="0.7" d="M1000.22 435.189C1000.22 434.764 1000.78 434.34 1001.34 434.34C1001.91 434.34 1002.47 434.764 1002.47 435.189C1002.47 435.613 1001.91 436.038 1001.34 436.038C1000.78 436.462 1000.22 436.038 1000.22 435.189Z" fill="white"/>
<path opacity="0.7" d="M815.574 497.87C815.574 497.445 816.138 497.021 816.702 497.021C817.266 497.021 817.83 497.445 817.83 497.87C817.83 498.294 817.266 498.719 816.702 498.719C816.138 498.719 815.574 498.294 815.574 497.87Z" fill="white"/>
<path opacity="0.7" d="M940.7 525.457C940.7 525.032 941.264 524.608 941.828 524.608C942.392 524.608 942.956 525.032 942.956 525.457C942.956 525.881 942.392 526.306 941.828 526.306C941.264 526.306 940.7 525.881 940.7 525.457Z" fill="white"/>
<path opacity="0.7" d="M1083.04 485.767C1083.04 484.918 1084.17 484.069 1085.3 484.069C1086.42 484.069 1087.55 484.918 1087.55 485.767C1087.55 486.616 1086.42 487.465 1085.3 487.465C1084.17 487.465 1083.04 486.616 1083.04 485.767Z" fill="white"/>
<path opacity="0.7" d="M1058.32 507.724C1058.32 506.875 1059.45 506.026 1060.58 506.026C1061.7 506.026 1062.83 506.875 1062.83 507.724C1062.83 508.573 1061.7 509.422 1060.58 509.422C1059.45 509.422 1058.32 508.573 1058.32 507.724Z" fill="white"/>
<path opacity="0.7" d="M966.89 514.657C966.89 513.808 968.018 512.959 969.146 512.959C970.274 512.959 971.402 513.808 971.402 514.657C971.402 515.506 970.274 516.355 969.146 516.355C968.018 516.355 966.89 515.506 966.89 514.657Z" fill="white"/>
<path opacity="0.7" d="M856.638 444.781C856.638 443.508 858.33 442.234 860.022 442.234C861.714 442.234 863.406 443.508 863.406 444.781C863.406 446.055 861.714 447.328 860.022 447.328C857.766 447.328 856.638 446.479 856.638 444.781Z" fill="white"/>
<path opacity="0.7" d="M880.128 527.35C880.128 526.077 881.82 524.803 883.512 524.803C885.204 524.803 886.896 526.077 886.896 527.35C886.896 528.624 885.204 529.897 883.512 529.897C881.82 529.897 880.128 528.624 880.128 527.35Z" fill="white"/>
<path opacity="0.7" d="M828.98 515.886C828.98 515.037 830.108 514.188 831.236 514.188C832.364 514.188 833.492 515.037 833.492 515.886C833.492 516.735 832.364 517.584 831.236 517.584C830.108 517.584 828.98 516.735 828.98 515.886Z" fill="white"/>
<path opacity="0.7" d="M791.285 505.838C791.285 504.989 791.849 504.564 792.977 504.564C794.105 504.564 794.669 504.989 794.669 505.838C794.669 506.687 794.105 507.111 792.977 507.111C792.413 507.111 791.285 506.262 791.285 505.838Z" fill="white"/>
<path opacity="0.7" d="M743.555 533.552C743.555 533.977 742.991 534.401 742.427 534.401C741.863 534.401 741.298 533.977 741.298 533.552C741.298 533.128 741.863 532.703 742.427 532.703C742.991 532.703 743.555 533.128 743.555 533.552Z" fill="white"/>
<path opacity="0.7" d="M656.507 470.945C656.507 471.369 655.943 471.794 655.379 471.794C654.815 471.794 654.251 471.369 654.251 470.945C654.251 470.52 654.815 470.096 655.379 470.096C655.943 470.096 656.507 470.52 656.507 470.945Z" fill="white"/>
<path opacity="0.7" d="M779.332 467.315C779.332 468.588 777.64 469.862 775.948 469.862C774.256 469.862 772.564 468.588 772.564 467.315C772.564 466.041 774.256 464.768 775.948 464.768C778.204 465.192 779.332 466.041 779.332 467.315Z" fill="white"/>
<path opacity="0.7" d="M359.247 457.347C359.247 456.498 359.811 456.073 360.939 456.073C362.067 456.073 362.631 456.498 362.631 457.347C362.631 458.196 362.067 458.62 360.939 458.62C360.375 458.62 359.247 458.196 359.247 457.347Z" fill="white"/>
<path opacity="0.7" d="M395.079 461.747C395.079 461.323 395.643 460.898 396.207 460.898C396.771 460.898 397.335 461.323 397.335 461.747C397.335 462.172 396.771 462.596 396.207 462.596C395.643 462.596 395.079 462.172 395.079 461.747Z" fill="white"/>
<path opacity="0.7" d="M289.966 454.524C289.966 454.099 290.53 453.675 291.094 453.675C291.658 453.675 292.222 454.099 292.222 454.524C292.222 454.948 291.658 455.373 291.094 455.373C290.53 455.797 289.966 455.373 289.966 454.524Z" fill="white"/>
<path opacity="0.7" d="M276.012 476.066C276.012 475.642 276.576 475.217 277.14 475.217C277.704 475.217 278.268 475.642 278.268 476.066C278.268 476.491 277.704 476.915 277.14 476.915C276.576 476.915 276.012 476.491 276.012 476.066Z" fill="white"/>
<path opacity="0.7" d="M400.57 503.63C400.57 503.206 401.134 502.781 401.698 502.781C402.262 502.781 402.826 503.206 402.826 503.63C402.826 504.055 402.262 504.479 401.698 504.479C401.134 504.479 400.57 504.055 400.57 503.63Z" fill="white"/>
<path opacity="0.7" d="M425.454 447.694C425.454 446.845 426.018 446.42 427.146 446.42C428.274 446.42 428.838 446.845 428.838 447.694C428.838 448.543 428.274 448.967 427.146 448.967C426.582 448.967 425.454 448.543 425.454 447.694Z" fill="white"/>
<path opacity="0.7" d="M518.191 485.898C518.191 485.049 519.319 484.2 520.447 484.2C521.575 484.2 522.703 485.049 522.703 485.898C522.703 486.747 521.575 487.596 520.447 487.596C519.319 487.596 518.191 486.747 518.191 485.898Z" fill="white"/>
<path opacity="0.7" d="M426.76 492.83C426.76 491.981 427.888 491.132 429.016 491.132C430.144 491.132 431.272 491.981 431.272 492.83C431.272 493.679 430.144 494.528 429.016 494.528C427.888 494.528 426.76 493.679 426.76 492.83Z" fill="white"/>
<path opacity="0.7" d="M378.864 435.586C378.864 435.162 379.428 434.737 379.992 434.737C380.556 434.737 381.12 435.162 381.12 435.586C381.12 436.011 380.556 436.435 379.992 436.435C379.428 436.86 378.864 436.435 378.864 435.586Z" fill="white"/>
<path opacity="0.7" d="M243.843 451.856C243.843 451.007 244.971 450.158 246.099 450.158C247.227 450.158 248.355 451.007 248.355 451.856C248.355 452.705 247.227 453.554 246.099 453.554C244.971 453.554 243.843 452.705 243.843 451.856Z" fill="white"/>
<path opacity="0.7" d="M219.123 473.812C219.123 472.963 220.252 472.114 221.38 472.114C222.508 472.114 223.636 472.963 223.636 473.812C223.636 474.661 222.508 475.51 221.38 475.51C219.688 475.51 219.123 474.661 219.123 473.812Z" fill="white"/>
<path opacity="0.7" d="M127.692 480.745C127.692 479.896 128.82 479.047 129.948 479.047C131.076 479.047 132.204 479.896 132.204 480.745C132.204 481.594 131.076 482.443 129.948 482.443C128.256 482.443 127.692 481.594 127.692 480.745Z" fill="white"/>
<path opacity="0.7" d="M171.803 503.76C171.803 502.911 172.367 502.487 173.495 502.487C174.623 502.487 175.188 502.911 175.188 503.76C175.188 504.609 174.623 505.034 173.495 505.034C172.367 505.034 171.803 504.609 171.803 503.76Z" fill="white"/>
<g opacity="0.7">
<path opacity="0.7" d="M445.77 470.542L445.206 464.175L436.746 463.75L445.206 463.326L445.77 456.958L446.335 463.326L454.795 463.75L446.335 464.175L445.77 470.542Z" fill="white"/>
<path opacity="0.7" d="M442.384 466.722L445.205 463.75L442.384 460.779L445.769 463.326L449.717 460.779L446.333 463.75L449.717 466.297L445.769 464.175L442.384 466.722Z" fill="white"/>
</g>
<g opacity="0.7">
<path opacity="0.7" d="M567.981 435.945L567.417 429.578L558.957 429.153L567.417 428.729L567.981 422.361L568.545 428.729L577.006 429.153L568.545 429.578L567.981 435.945Z" fill="white"/>
<path opacity="0.7" d="M564.595 432.125L567.415 429.154L564.595 426.182L567.979 428.729L571.928 426.182L568.544 429.154L571.928 431.701L567.979 429.578L564.595 432.125Z" fill="white"/>
</g>
<g opacity="0.7">
<path opacity="0.7" d="M504.777 764.023L503.649 758.08L495.753 757.231H503.649L504.777 750.439L505.341 757.231H513.802L505.341 758.08L504.777 764.023Z" fill="white"/>
<path opacity="0.7" d="M500.827 760.203L503.647 757.656L500.827 754.684L504.211 756.807L508.724 754.684L505.339 757.231L508.724 760.203L504.775 758.08L500.827 760.203Z" fill="white"/>
</g>
</g>
<defs>
<radialGradient id="paint0_radial_62_53782" cx="0" cy="0" r="1" gradientUnits="userSpaceOnUse" gradientTransform="translate(756 491) rotate(90) scale(491 756)">
<stop stop-color="#3C3252"/>
<stop offset="1" stop-color="#0E0326"/>
</radialGradient>
</defs>
</svg>
