<svg width="192" height="290" viewBox="0 0 192 290" fill="none" xmlns="http://www.w3.org/2000/svg">
<path d="M138.237 61.7961C120.838 10.7471 95.25 0 95.25 0V173.086V189.312V205.539H154.741C156.063 185.256 156.976 165.906 155.338 147.393C152.788 118.584 148.247 91.1637 138.237 61.7961Z" fill="#EF315A"/>
<path d="M129.75 134C128.95 101.6 120.416 75.1667 116.25 66L99.7498 81.5C93.3498 106.3 94.7498 174.5 96.2498 205.5H127.75C128.75 195.167 130.55 166.4 129.75 134Z" fill="#F44A63"/>
<path d="M52.2304 61.7961C69.63 10.7471 95.2178 0 95.2178 0V173.086V189.312V205.539H35.7263C34.4043 185.256 33.492 165.906 35.1303 147.393C37.6796 118.584 42.2206 91.1637 52.2304 61.7961Z" fill="#DB2C52"/>
</svg>
