<svg width="192" height="290" viewBox="0 0 192 290" fill="none" xmlns="http://www.w3.org/2000/svg">
<path d="M13.75 161L44.75 139.073V190L0.75 225L13.75 161Z" fill="#F44A63"/>
<path d="M177.25 161L149.25 142.5V190L191.25 225.5L177.25 161Z" fill="#DE3052"/>
<path d="M138.237 61.7961C120.838 10.7471 95.25 0 95.25 0V173.086V189.312V205.539H154.741C156.063 185.256 156.976 165.906 155.338 147.393C152.788 118.584 148.247 91.1637 138.237 61.7961Z" fill="#EF315A"/>
<path d="M129.75 134C128.95 101.6 120.416 75.1667 116.25 66L99.7498 81.5C93.3498 106.3 94.7498 174.5 96.2498 205.5H127.75C128.75 195.167 130.55 166.4 129.75 134Z" fill="#F44A63"/>
<path d="M52.2304 61.7961C69.63 10.7471 95.2178 0 95.2178 0V173.086V189.312V205.539H35.7263C34.4043 185.256 33.492 165.906 35.1303 147.393C37.6796 118.584 42.2206 91.1637 52.2304 61.7961Z" fill="#DB2C52"/>
<mask id="mask0_62_53114" style="mask-type:alpha" maskUnits="userSpaceOnUse" x="34" y="0" width="62" height="206">
<path d="M52.2304 61.7961C69.63 10.7471 95.2178 0 95.2178 0V173.086V189.312V205.539H35.7263C34.4043 185.256 33.492 165.906 35.1303 147.393C37.6796 118.584 42.2206 91.1637 52.2304 61.7961Z" fill="#DB2C52"/>
</mask>
<g mask="url(#mask0_62_53114)">
<path d="M54.6843 159.675L94.7501 142.032L95.25 205.5H44.75L54.6843 159.675Z" fill="#A52139"/>
</g>
<path d="M62.2498 61.5C64.75 46.5 78.4165 42.1667 89.2498 39.5L93.2499 82C85.75 82 59.7768 76.3369 62.2498 61.5Z" fill="#A52647"/>
<path d="M81.8408 222.24C90.8375 222.24 97.066 222.24 112.291 222.24C129.048 222.24 116.444 269.856 112.291 269.856C108.139 269.856 97.066 289.056 97.066 289.056C97.066 289.056 88.0693 269.856 81.8408 269.856C75.6123 269.856 66.2956 222.24 81.8408 222.24Z" fill="#E36018"/>
<path d="M84.4843 222.24C91.9164 222.24 97.0617 222.24 109.639 222.24C123.481 222.24 113.069 257.952 109.639 257.952C106.209 257.952 97.0617 272.352 97.0617 272.352C97.0617 272.352 89.6296 257.952 84.4843 257.952C79.339 257.952 71.6426 222.24 84.4843 222.24Z" fill="#FFAE44"/>
<path d="M88.4493 222.24C93.5344 222.24 97.0549 222.24 105.66 222.24C115.131 222.24 108.007 246.048 105.66 246.048C103.313 246.048 97.0549 255.648 97.0549 255.648C97.0549 255.648 91.9697 246.048 88.4493 246.048C84.9288 246.048 79.6629 222.24 88.4493 222.24Z" fill="#FCE25E"/>
<path d="M68.25 205.54H124.137L120.75 225.585H73.3306L68.25 205.54Z" fill="#5B6575"/>
<path d="M114.25 60.1661C114.25 70.4547 105.782 78.8655 95.25 78.8655C84.7175 78.8655 76.25 70.4547 76.25 60.1661C76.25 49.8776 84.7175 41.4668 95.25 41.4668C105.782 41.4668 114.25 49.8776 114.25 60.1661Z" fill="white" stroke="#9C0052" stroke-width="6"/>
<path d="M95.25 246L100.75 153.451L95.25 141V246Z" fill="#DE2952"/>
<path d="M95.25 246L89.75 153.451L95.25 141V246Z" fill="#B52141"/>
</svg>
