<svg width="496" height="169" viewBox="0 0 496 169" fill="none" xmlns="http://www.w3.org/2000/svg">
<rect width="496" height="169" rx="32" fill="url(#paint0_radial_62_52634)"/>
<path d="M108.751 46.3896C107.368 46.3896 106.281 46.8525 105.49 47.7783C104.699 48.7041 104.304 49.9697 104.304 51.5752C104.304 53.2334 104.688 54.5137 105.455 55.416C106.223 56.3125 107.315 56.7607 108.733 56.7607C109.647 56.7607 110.676 56.5908 111.818 56.251V57.6572C111.273 57.8564 110.749 57.9912 110.245 58.0615C109.741 58.1377 109.161 58.1758 108.505 58.1758C106.612 58.1758 105.153 57.6016 104.128 56.4531C103.108 55.2988 102.599 53.667 102.599 51.5576C102.599 50.2334 102.842 49.0732 103.328 48.0771C103.82 47.0811 104.532 46.3135 105.464 45.7744C106.401 45.2354 107.503 44.9658 108.769 44.9658C110.128 44.9658 111.312 45.2178 112.319 45.7217L111.669 47.0928C110.644 46.624 109.671 46.3896 108.751 46.3896ZM122.787 53.1572C122.787 54.7334 122.389 55.9639 121.592 56.8486C120.795 57.7334 119.693 58.1758 118.287 58.1758C117.414 58.1758 116.641 57.9736 115.967 57.5693C115.293 57.1592 114.774 56.5732 114.411 55.8115C114.048 55.0498 113.866 54.165 113.866 53.1572C113.866 51.5869 114.259 50.3652 115.044 49.4922C115.829 48.6133 116.931 48.1738 118.349 48.1738C119.708 48.1738 120.786 48.6221 121.583 49.5186C122.386 50.4092 122.787 51.6221 122.787 53.1572ZM115.501 53.1572C115.501 54.3701 115.738 55.293 116.213 55.9258C116.693 56.5527 117.399 56.8662 118.331 56.8662C119.251 56.8662 119.951 56.5527 120.432 55.9258C120.912 55.293 121.152 54.3701 121.152 53.1572C121.152 51.9443 120.909 51.0332 120.423 50.4238C119.942 49.8086 119.236 49.501 118.305 49.501C116.436 49.501 115.501 50.7197 115.501 53.1572ZM129.801 48.1738C130.229 48.1738 130.606 48.209 130.935 48.2793L130.741 49.7383C130.384 49.6562 130.035 49.6152 129.695 49.6152C129.186 49.6152 128.711 49.7559 128.271 50.0371C127.838 50.3184 127.498 50.708 127.252 51.2061C127.006 51.6982 126.883 52.2461 126.883 52.8496V58H125.301V48.3496H126.602L126.777 50.1162H126.848C127.217 49.4775 127.653 48.9941 128.157 48.666C128.661 48.3379 129.209 48.1738 129.801 48.1738ZM137.236 48.1738C137.664 48.1738 138.042 48.209 138.37 48.2793L138.177 49.7383C137.819 49.6562 137.471 49.6152 137.131 49.6152C136.621 49.6152 136.146 49.7559 135.707 50.0371C135.273 50.3184 134.934 50.708 134.688 51.2061C134.441 51.6982 134.318 52.2461 134.318 52.8496V58H132.736V48.3496H134.037L134.213 50.1162H134.283C134.652 49.4775 135.089 48.9941 135.593 48.666C136.097 48.3379 136.645 48.1738 137.236 48.1738ZM144.101 58.1758C142.653 58.1758 141.517 57.7393 140.69 56.8662C139.87 55.9873 139.46 54.7803 139.46 53.2451C139.46 51.6982 139.844 50.4678 140.611 49.5537C141.379 48.6338 142.416 48.1738 143.723 48.1738C144.936 48.1738 145.902 48.5664 146.623 49.3516C147.344 50.1309 147.704 51.1885 147.704 52.5244V53.4824H141.095C141.124 54.5781 141.402 55.4102 141.93 55.9785C142.457 56.5469 143.204 56.8311 144.171 56.8311C144.687 56.8311 145.176 56.7871 145.639 56.6992C146.102 56.6055 146.644 56.4268 147.265 56.1631V57.5518C146.731 57.7803 146.23 57.9414 145.762 58.0352C145.293 58.1289 144.739 58.1758 144.101 58.1758ZM143.705 49.4658C142.949 49.4658 142.352 49.709 141.912 50.1953C141.473 50.6816 141.212 51.3584 141.13 52.2256H146.043C146.031 51.3232 145.823 50.6377 145.419 50.1689C145.015 49.7002 144.443 49.4658 143.705 49.4658ZM154.023 58.1758C152.635 58.1758 151.554 57.751 150.78 56.9014C150.007 56.0459 149.62 54.8213 149.62 53.2275C149.62 51.6104 150.01 50.3652 150.789 49.4922C151.574 48.6133 152.69 48.1738 154.138 48.1738C154.606 48.1738 155.069 48.2236 155.526 48.3232C155.989 48.417 156.37 48.54 156.669 48.6924L156.186 50.0107C155.371 49.7061 154.677 49.5537 154.103 49.5537C153.13 49.5537 152.412 49.8613 151.949 50.4766C151.486 51.0859 151.255 51.9971 151.255 53.21C151.255 54.376 151.486 55.2695 151.949 55.8906C152.412 56.5059 153.098 56.8135 154.006 56.8135C154.855 56.8135 155.69 56.626 156.511 56.251V57.6572C155.843 58.0029 155.014 58.1758 154.023 58.1758ZM162.03 56.8838C162.235 56.8838 162.476 56.8633 162.751 56.8223C163.026 56.7812 163.234 56.7344 163.375 56.6816V57.8945C163.229 57.959 163 58.0205 162.689 58.0791C162.385 58.1436 162.074 58.1758 161.758 58.1758C159.871 58.1758 158.928 57.1826 158.928 55.1963V49.5801H157.565V48.8242L158.945 48.1914L159.578 46.1348H160.519V48.3496H163.305V49.5801H160.519V55.1523C160.519 55.709 160.65 56.1367 160.914 56.4355C161.184 56.7344 161.556 56.8838 162.03 56.8838ZM175.785 51.2148H180.224V57.5166C179.544 57.7334 178.853 57.8975 178.149 58.0088C177.446 58.1201 176.632 58.1758 175.706 58.1758C173.749 58.1758 172.234 57.5957 171.162 56.4355C170.09 55.2754 169.554 53.6553 169.554 51.5752C169.554 50.2334 169.82 49.0615 170.354 48.0596C170.887 47.0576 171.654 46.293 172.656 45.7656C173.664 45.2324 174.851 44.9658 176.216 44.9658C177.587 44.9658 178.864 45.2178 180.048 45.7217L179.433 47.1279C178.302 46.6357 177.197 46.3896 176.119 46.3896C174.59 46.3896 173.395 46.8525 172.533 47.7783C171.672 48.7041 171.241 49.9697 171.241 51.5752C171.241 53.2744 171.654 54.5664 172.48 55.4512C173.307 56.3359 174.508 56.7783 176.084 56.7783C176.945 56.7783 177.786 56.6758 178.606 56.4707V52.6562H175.785V51.2148ZM184.592 48.3496V54.5635C184.592 55.3428 184.765 55.9229 185.11 56.3037C185.462 56.6787 186.004 56.8662 186.736 56.8662C187.727 56.8662 188.447 56.5908 188.898 56.04C189.35 55.4893 189.575 54.6016 189.575 53.377V48.3496H191.166V58H189.865L189.637 56.7256H189.558C189.271 57.1885 188.863 57.5459 188.336 57.7979C187.809 58.0498 187.196 58.1758 186.499 58.1758C185.339 58.1758 184.463 57.8975 183.871 57.3408C183.285 56.7842 182.992 55.8936 182.992 54.6689V48.3496H184.592ZM198.329 58.1758C196.882 58.1758 195.745 57.7393 194.919 56.8662C194.099 55.9873 193.688 54.7803 193.688 53.2451C193.688 51.6982 194.072 50.4678 194.84 49.5537C195.607 48.6338 196.645 48.1738 197.951 48.1738C199.164 48.1738 200.131 48.5664 200.852 49.3516C201.572 50.1309 201.933 51.1885 201.933 52.5244V53.4824H195.323C195.353 54.5781 195.631 55.4102 196.158 55.9785C196.686 56.5469 197.433 56.8311 198.399 56.8311C198.915 56.8311 199.404 56.7871 199.867 56.6992C200.33 56.6055 200.872 56.4268 201.493 56.1631V57.5518C200.96 57.7803 200.459 57.9414 199.99 58.0352C199.521 58.1289 198.968 58.1758 198.329 58.1758ZM197.934 49.4658C197.178 49.4658 196.58 49.709 196.141 50.1953C195.701 50.6816 195.44 51.3584 195.358 52.2256H200.271C200.26 51.3232 200.052 50.6377 199.647 50.1689C199.243 49.7002 198.672 49.4658 197.934 49.4658ZM210.669 55.3369C210.669 56.2393 210.332 56.9395 209.658 57.4375C208.984 57.9297 208.038 58.1758 206.819 58.1758C205.548 58.1758 204.537 57.9736 203.787 57.5693V56.1279C204.848 56.6436 205.87 56.9014 206.854 56.9014C207.651 56.9014 208.231 56.7725 208.595 56.5146C208.958 56.2568 209.14 55.9111 209.14 55.4775C209.14 55.0967 208.964 54.7744 208.612 54.5107C208.267 54.2471 207.648 53.9453 206.758 53.6055C205.85 53.2539 205.211 52.9551 204.842 52.709C204.473 52.457 204.2 52.1758 204.024 51.8652C203.854 51.5547 203.77 51.1768 203.77 50.7314C203.77 49.9404 204.092 49.3164 204.736 48.8594C205.381 48.4023 206.266 48.1738 207.391 48.1738C208.486 48.1738 209.512 48.3906 210.467 48.8242L209.931 50.0811C208.952 49.6709 208.07 49.4658 207.285 49.4658C206.629 49.4658 206.131 49.5713 205.791 49.7822C205.451 49.9873 205.281 50.2715 205.281 50.6348C205.281 50.9863 205.428 51.2793 205.721 51.5137C206.014 51.7422 206.696 52.0615 207.769 52.4717C208.571 52.7705 209.163 53.0488 209.544 53.3066C209.931 53.5645 210.215 53.8545 210.396 54.1768C210.578 54.499 210.669 54.8857 210.669 55.3369ZM219.3 55.3369C219.3 56.2393 218.963 56.9395 218.289 57.4375C217.615 57.9297 216.669 58.1758 215.45 58.1758C214.179 58.1758 213.168 57.9736 212.418 57.5693V56.1279C213.479 56.6436 214.501 56.9014 215.485 56.9014C216.282 56.9014 216.862 56.7725 217.226 56.5146C217.589 56.2568 217.771 55.9111 217.771 55.4775C217.771 55.0967 217.595 54.7744 217.243 54.5107C216.897 54.2471 216.279 53.9453 215.389 53.6055C214.48 53.2539 213.842 52.9551 213.473 52.709C213.104 52.457 212.831 52.1758 212.655 51.8652C212.485 51.5547 212.4 51.1768 212.4 50.7314C212.4 49.9404 212.723 49.3164 213.367 48.8594C214.012 48.4023 214.896 48.1738 216.021 48.1738C217.117 48.1738 218.143 48.3906 219.098 48.8242L218.562 50.0811C217.583 49.6709 216.701 49.4658 215.916 49.4658C215.26 49.4658 214.762 49.5713 214.422 49.7822C214.082 49.9873 213.912 50.2715 213.912 50.6348C213.912 50.9863 214.059 51.2793 214.352 51.5137C214.645 51.7422 215.327 52.0615 216.399 52.4717C217.202 52.7705 217.794 53.0488 218.175 53.3066C218.562 53.5645 218.846 53.8545 219.027 54.1768C219.209 54.499 219.3 54.8857 219.3 55.3369Z" fill="white"/>
<rect x="137" y="71" width="48" height="58" fill="white"/>
<rect x="137" y="71" width="48" height="58" fill="#0E0326" fill-opacity="0.25"/>
<path d="M169.238 108H166.191V103.875H155.48V108H152.434V99.5977C152.434 98.3711 152.645 97.2422 153.066 96.2109C153.488 95.1797 154.074 94.293 154.824 93.5508C155.574 92.8086 156.461 92.2305 157.484 91.8164C158.508 91.4023 159.625 91.1953 160.836 91.1953H167.703C167.914 91.1953 168.113 91.2344 168.301 91.3125C168.488 91.3906 168.652 91.5 168.793 91.6406C168.934 91.7812 169.043 91.9453 169.121 92.1328C169.199 92.3203 169.238 92.5195 169.238 92.7305V108ZM155.48 100.828H166.191V94.2422H160.836C160.742 94.2422 160.543 94.2578 160.238 94.2891C159.941 94.3125 159.594 94.3789 159.195 94.4883C158.805 94.5977 158.391 94.7656 157.953 94.9922C157.516 95.2188 157.113 95.5312 156.746 95.9297C156.379 96.3281 156.074 96.8281 155.832 97.4297C155.598 98.0234 155.48 98.7461 155.48 99.5977V100.828Z" fill="#0E0326"/>
<rect x="138.5" y="72.5" width="45" height="55" stroke="#0E0326" stroke-opacity="0.25" stroke-width="3"/>
<path d="M265.861 58H261.221V57.0684L262.732 56.7256V46.4424L261.221 46.082V45.1504H265.861V46.082L264.35 46.4424V56.7256L265.861 57.0684V58ZM274.703 58V51.8301C274.703 51.0449 274.527 50.4619 274.176 50.0811C273.83 49.6943 273.285 49.501 272.541 49.501C271.551 49.501 270.83 49.7764 270.379 50.3271C269.934 50.8721 269.711 51.7627 269.711 52.999V58H268.129V48.3496H269.403L269.641 49.668H269.729C270.027 49.1934 270.446 48.8271 270.985 48.5693C271.524 48.3057 272.119 48.1738 272.77 48.1738C273.953 48.1738 274.832 48.4609 275.406 49.0352C275.98 49.6094 276.268 50.5029 276.268 51.7158V58H274.703ZM283.123 58.1758C281.734 58.1758 280.653 57.751 279.88 56.9014C279.106 56.0459 278.72 54.8213 278.72 53.2275C278.72 51.6104 279.109 50.3652 279.889 49.4922C280.674 48.6133 281.79 48.1738 283.237 48.1738C283.706 48.1738 284.169 48.2236 284.626 48.3232C285.089 48.417 285.47 48.54 285.769 48.6924L285.285 50.0107C284.471 49.7061 283.776 49.5537 283.202 49.5537C282.229 49.5537 281.512 49.8613 281.049 50.4766C280.586 51.0859 280.354 51.9971 280.354 53.21C280.354 54.376 280.586 55.2695 281.049 55.8906C281.512 56.5059 282.197 56.8135 283.105 56.8135C283.955 56.8135 284.79 56.626 285.61 56.251V57.6572C284.942 58.0029 284.113 58.1758 283.123 58.1758ZM296.289 53.1572C296.289 54.7334 295.891 55.9639 295.094 56.8486C294.297 57.7334 293.195 58.1758 291.789 58.1758C290.916 58.1758 290.143 57.9736 289.469 57.5693C288.795 57.1592 288.276 56.5732 287.913 55.8115C287.55 55.0498 287.368 54.165 287.368 53.1572C287.368 51.5869 287.761 50.3652 288.546 49.4922C289.331 48.6133 290.433 48.1738 291.851 48.1738C293.21 48.1738 294.288 48.6221 295.085 49.5186C295.888 50.4092 296.289 51.6221 296.289 53.1572ZM289.003 53.1572C289.003 54.3701 289.24 55.293 289.715 55.9258C290.195 56.5527 290.901 56.8662 291.833 56.8662C292.753 56.8662 293.453 56.5527 293.934 55.9258C294.414 55.293 294.654 54.3701 294.654 53.1572C294.654 51.9443 294.411 51.0332 293.925 50.4238C293.444 49.8086 292.738 49.501 291.807 49.501C289.938 49.501 289.003 50.7197 289.003 53.1572ZM303.303 48.1738C303.73 48.1738 304.108 48.209 304.437 48.2793L304.243 49.7383C303.886 49.6562 303.537 49.6152 303.197 49.6152C302.688 49.6152 302.213 49.7559 301.773 50.0371C301.34 50.3184 301 50.708 300.754 51.2061C300.508 51.6982 300.385 52.2461 300.385 52.8496V58H298.803V48.3496H300.104L300.279 50.1162H300.35C300.719 49.4775 301.155 48.9941 301.659 48.666C302.163 48.3379 302.711 48.1738 303.303 48.1738ZM310.738 48.1738C311.166 48.1738 311.544 48.209 311.872 48.2793L311.679 49.7383C311.321 49.6562 310.973 49.6152 310.633 49.6152C310.123 49.6152 309.648 49.7559 309.209 50.0371C308.775 50.3184 308.436 50.708 308.189 51.2061C307.943 51.6982 307.82 52.2461 307.82 52.8496V58H306.238V48.3496H307.539L307.715 50.1162H307.785C308.154 49.4775 308.591 48.9941 309.095 48.666C309.599 48.3379 310.146 48.1738 310.738 48.1738ZM317.603 58.1758C316.155 58.1758 315.019 57.7393 314.192 56.8662C313.372 55.9873 312.962 54.7803 312.962 53.2451C312.962 51.6982 313.346 50.4678 314.113 49.5537C314.881 48.6338 315.918 48.1738 317.225 48.1738C318.438 48.1738 319.404 48.5664 320.125 49.3516C320.846 50.1309 321.206 51.1885 321.206 52.5244V53.4824H314.597C314.626 54.5781 314.904 55.4102 315.432 55.9785C315.959 56.5469 316.706 56.8311 317.673 56.8311C318.188 56.8311 318.678 56.7871 319.141 56.6992C319.604 56.6055 320.146 56.4268 320.767 56.1631V57.5518C320.233 57.7803 319.732 57.9414 319.264 58.0352C318.795 58.1289 318.241 58.1758 317.603 58.1758ZM317.207 49.4658C316.451 49.4658 315.854 49.709 315.414 50.1953C314.975 50.6816 314.714 51.3584 314.632 52.2256H319.545C319.533 51.3232 319.325 50.6377 318.921 50.1689C318.517 49.7002 317.945 49.4658 317.207 49.4658ZM327.525 58.1758C326.137 58.1758 325.056 57.751 324.282 56.9014C323.509 56.0459 323.122 54.8213 323.122 53.2275C323.122 51.6104 323.512 50.3652 324.291 49.4922C325.076 48.6133 326.192 48.1738 327.64 48.1738C328.108 48.1738 328.571 48.2236 329.028 48.3232C329.491 48.417 329.872 48.54 330.171 48.6924L329.688 50.0107C328.873 49.7061 328.179 49.5537 327.604 49.5537C326.632 49.5537 325.914 49.8613 325.451 50.4766C324.988 51.0859 324.757 51.9971 324.757 53.21C324.757 54.376 324.988 55.2695 325.451 55.8906C325.914 56.5059 326.6 56.8135 327.508 56.8135C328.357 56.8135 329.192 56.626 330.013 56.251V57.6572C329.345 58.0029 328.516 58.1758 327.525 58.1758ZM335.532 56.8838C335.737 56.8838 335.978 56.8633 336.253 56.8223C336.528 56.7812 336.736 56.7344 336.877 56.6816V57.8945C336.73 57.959 336.502 58.0205 336.191 58.0791C335.887 58.1436 335.576 58.1758 335.26 58.1758C333.373 58.1758 332.43 57.1826 332.43 55.1963V49.5801H331.067V48.8242L332.447 48.1914L333.08 46.1348H334.021V48.3496H336.807V49.5801H334.021V55.1523C334.021 55.709 334.152 56.1367 334.416 56.4355C334.686 56.7344 335.058 56.8838 335.532 56.8838ZM349.287 51.2148H353.726V57.5166C353.046 57.7334 352.354 57.8975 351.651 58.0088C350.948 58.1201 350.134 58.1758 349.208 58.1758C347.251 58.1758 345.736 57.5957 344.664 56.4355C343.592 55.2754 343.056 53.6553 343.056 51.5752C343.056 50.2334 343.322 49.0615 343.855 48.0596C344.389 47.0576 345.156 46.293 346.158 45.7656C347.166 45.2324 348.353 44.9658 349.718 44.9658C351.089 44.9658 352.366 45.2178 353.55 45.7217L352.935 47.1279C351.804 46.6357 350.699 46.3896 349.621 46.3896C348.092 46.3896 346.896 46.8525 346.035 47.7783C345.174 48.7041 344.743 49.9697 344.743 51.5752C344.743 53.2744 345.156 54.5664 345.982 55.4512C346.809 56.3359 348.01 56.7783 349.586 56.7783C350.447 56.7783 351.288 56.6758 352.108 56.4707V52.6562H349.287V51.2148ZM358.094 48.3496V54.5635C358.094 55.3428 358.267 55.9229 358.612 56.3037C358.964 56.6787 359.506 56.8662 360.238 56.8662C361.229 56.8662 361.949 56.5908 362.4 56.04C362.852 55.4893 363.077 54.6016 363.077 53.377V48.3496H364.668V58H363.367L363.139 56.7256H363.06C362.772 57.1885 362.365 57.5459 361.838 57.7979C361.311 58.0498 360.698 58.1758 360.001 58.1758C358.841 58.1758 357.965 57.8975 357.373 57.3408C356.787 56.7842 356.494 55.8936 356.494 54.6689V48.3496H358.094ZM371.831 58.1758C370.384 58.1758 369.247 57.7393 368.421 56.8662C367.601 55.9873 367.19 54.7803 367.19 53.2451C367.19 51.6982 367.574 50.4678 368.342 49.5537C369.109 48.6338 370.146 48.1738 371.453 48.1738C372.666 48.1738 373.633 48.5664 374.354 49.3516C375.074 50.1309 375.435 51.1885 375.435 52.5244V53.4824H368.825C368.854 54.5781 369.133 55.4102 369.66 55.9785C370.188 56.5469 370.935 56.8311 371.901 56.8311C372.417 56.8311 372.906 56.7871 373.369 56.6992C373.832 56.6055 374.374 56.4268 374.995 56.1631V57.5518C374.462 57.7803 373.961 57.9414 373.492 58.0352C373.023 58.1289 372.47 58.1758 371.831 58.1758ZM371.436 49.4658C370.68 49.4658 370.082 49.709 369.643 50.1953C369.203 50.6816 368.942 51.3584 368.86 52.2256H373.773C373.762 51.3232 373.554 50.6377 373.149 50.1689C372.745 49.7002 372.174 49.4658 371.436 49.4658ZM384.171 55.3369C384.171 56.2393 383.834 56.9395 383.16 57.4375C382.486 57.9297 381.54 58.1758 380.321 58.1758C379.05 58.1758 378.039 57.9736 377.289 57.5693V56.1279C378.35 56.6436 379.372 56.9014 380.356 56.9014C381.153 56.9014 381.733 56.7725 382.097 56.5146C382.46 56.2568 382.642 55.9111 382.642 55.4775C382.642 55.0967 382.466 54.7744 382.114 54.5107C381.769 54.2471 381.15 53.9453 380.26 53.6055C379.352 53.2539 378.713 52.9551 378.344 52.709C377.975 52.457 377.702 52.1758 377.526 51.8652C377.356 51.5547 377.271 51.1768 377.271 50.7314C377.271 49.9404 377.594 49.3164 378.238 48.8594C378.883 48.4023 379.768 48.1738 380.893 48.1738C381.988 48.1738 383.014 48.3906 383.969 48.8242L383.433 50.0811C382.454 49.6709 381.572 49.4658 380.787 49.4658C380.131 49.4658 379.633 49.5713 379.293 49.7822C378.953 49.9873 378.783 50.2715 378.783 50.6348C378.783 50.9863 378.93 51.2793 379.223 51.5137C379.516 51.7422 380.198 52.0615 381.271 52.4717C382.073 52.7705 382.665 53.0488 383.046 53.3066C383.433 53.5645 383.717 53.8545 383.898 54.1768C384.08 54.499 384.171 54.8857 384.171 55.3369ZM392.802 55.3369C392.802 56.2393 392.465 56.9395 391.791 57.4375C391.117 57.9297 390.171 58.1758 388.952 58.1758C387.681 58.1758 386.67 57.9736 385.92 57.5693V56.1279C386.98 56.6436 388.003 56.9014 388.987 56.9014C389.784 56.9014 390.364 56.7725 390.728 56.5146C391.091 56.2568 391.272 55.9111 391.272 55.4775C391.272 55.0967 391.097 54.7744 390.745 54.5107C390.399 54.2471 389.781 53.9453 388.891 53.6055C387.982 53.2539 387.344 52.9551 386.975 52.709C386.605 52.457 386.333 52.1758 386.157 51.8652C385.987 51.5547 385.902 51.1768 385.902 50.7314C385.902 49.9404 386.225 49.3164 386.869 48.8594C387.514 48.4023 388.398 48.1738 389.523 48.1738C390.619 48.1738 391.645 48.3906 392.6 48.8242L392.063 50.0811C391.085 49.6709 390.203 49.4658 389.418 49.4658C388.762 49.4658 388.264 49.5713 387.924 49.7822C387.584 49.9873 387.414 50.2715 387.414 50.6348C387.414 50.9863 387.561 51.2793 387.854 51.5137C388.146 51.7422 388.829 52.0615 389.901 52.4717C390.704 52.7705 391.296 53.0488 391.677 53.3066C392.063 53.5645 392.348 53.8545 392.529 54.1768C392.711 54.499 392.802 54.8857 392.802 55.3369Z" fill="white"/>
<rect x="303.5" y="71" width="48" height="58" fill="white" fill-opacity="0.5"/>
<path d="M335.738 108H332.691V103.875H321.98V108H318.934V99.5977C318.934 98.3711 319.145 97.2422 319.566 96.2109C319.988 95.1797 320.574 94.293 321.324 93.5508C322.074 92.8086 322.961 92.2305 323.984 91.8164C325.008 91.4023 326.125 91.1953 327.336 91.1953H334.203C334.414 91.1953 334.613 91.2344 334.801 91.3125C334.988 91.3906 335.152 91.5 335.293 91.6406C335.434 91.7812 335.543 91.9453 335.621 92.1328C335.699 92.3203 335.738 92.5195 335.738 92.7305V108ZM321.98 100.828H332.691V94.2422H327.336C327.242 94.2422 327.043 94.2578 326.738 94.2891C326.441 94.3125 326.094 94.3789 325.695 94.4883C325.305 94.5977 324.891 94.7656 324.453 94.9922C324.016 95.2188 323.613 95.5312 323.246 95.9297C322.879 96.3281 322.574 96.8281 322.332 97.4297C322.098 98.0234 321.98 98.7461 321.98 99.5977V100.828Z" fill="white" fill-opacity="0.5"/>
<rect x="304.25" y="71.75" width="46.5" height="56.5" stroke="white" stroke-opacity="0.25" stroke-width="1.5"/>
<defs>
<radialGradient id="paint0_radial_62_52634" cx="0" cy="0" r="1" gradientUnits="userSpaceOnUse" gradientTransform="translate(248 84.5) rotate(90) scale(84.5 248)">
<stop stop-color="#3C3252"/>
<stop offset="1" stop-color="#0E0326"/>
</radialGradient>
</defs>
</svg>
