<svg width="375" height="812" viewBox="0 0 375 812" fill="none" xmlns="http://www.w3.org/2000/svg">
<g clip-path="url(#clip0_1563_165784)">
<rect width="375" height="812" fill="url(#paint0_radial_1563_165784)"/>
<g opacity="0.5">
<path opacity="0.7" d="M226.678 59.3429C225.787 59.5816 224.579 58.6364 224.262 57.4524C223.944 56.2684 224.518 54.8457 225.409 54.6069C226.3 54.3682 227.509 55.3134 227.826 56.4974C228.302 58.2734 227.569 59.1041 226.678 59.3429Z" fill="white"/>
<path opacity="0.7" d="M208.044 321.308C207.599 321.428 206.994 320.955 206.836 320.363C206.677 319.771 206.964 319.06 207.41 318.94C207.855 318.821 208.459 319.294 208.618 319.886C208.777 320.478 208.49 321.189 208.044 321.308Z" fill="white"/>
<path opacity="0.7" d="M172.5 10.4134C171.163 10.7716 169.351 9.35378 168.875 7.57782C168.399 5.80185 169.26 3.6677 170.596 3.30955C171.933 2.95141 173.745 4.36926 174.221 6.14522C174.252 8.04057 173.836 10.0553 172.5 10.4134Z" fill="white"/>
<path opacity="0.7" d="M302.306 591.088C301.86 591.208 301.256 590.735 301.098 590.143C300.939 589.551 301.226 588.84 301.671 588.72C302.117 588.601 302.721 589.073 302.88 589.665C303.038 590.257 302.751 590.969 302.306 591.088Z" fill="white"/>
<path opacity="0.7" d="M260.189 410.757C259.743 410.876 259.139 410.403 258.98 409.811C258.822 409.219 259.109 408.508 259.554 408.389C260 408.269 260.604 408.742 260.763 409.334C260.921 409.926 260.634 410.637 260.189 410.757Z" fill="white"/>
<path opacity="0.7" d="M365.733 649.599C365.287 649.718 364.683 649.246 364.524 648.654C364.366 648.062 364.653 647.35 365.098 647.231C365.544 647.112 366.148 647.584 366.307 648.176C366.911 648.649 366.624 649.36 365.733 649.599Z" fill="white"/>
<path opacity="0.7" d="M331.034 550.4C330.143 550.639 328.934 549.694 328.617 548.51C328.3 547.326 328.874 545.903 329.765 545.664C330.656 545.425 331.864 546.371 332.181 547.555C332.499 548.738 331.925 550.161 331.034 550.4Z" fill="white"/>
<path opacity="0.7" d="M284.095 562.343C283.649 562.462 283.045 561.989 282.887 561.397C282.728 560.805 283.015 560.094 283.46 559.975C283.906 559.855 284.51 560.328 284.669 560.92C284.827 561.512 284.541 562.223 284.095 562.343Z" fill="white"/>
<path opacity="0.7" d="M330.001 411.086C329.556 411.205 328.952 410.732 328.793 410.14C328.634 409.548 328.921 408.837 329.367 408.718C329.812 408.598 330.416 409.071 330.575 409.663C330.734 410.255 330.447 410.966 330.001 411.086Z" fill="white"/>
<path opacity="0.7" d="M302.976 222.906C301.64 223.264 299.827 221.846 299.351 220.07C298.875 218.294 299.736 216.16 301.073 215.802C302.409 215.444 304.222 216.861 304.698 218.637C304.728 220.533 304.313 222.548 302.976 222.906Z" fill="white"/>
<path opacity="0.7" d="M295.884 180.391C295.438 180.511 294.834 180.038 294.676 179.446C294.517 178.854 294.804 178.143 295.25 178.023C295.695 177.904 296.299 178.377 296.458 178.969C296.616 179.561 296.33 180.272 295.884 180.391Z" fill="white"/>
<path opacity="0.7" d="M208.876 242.407C208.431 242.526 207.827 242.053 207.668 241.461C207.509 240.869 207.796 240.158 208.242 240.039C208.687 239.919 209.291 240.392 209.45 240.984C209.609 241.576 209.322 242.287 208.876 242.407Z" fill="white"/>
<path opacity="0.7" d="M212.306 167.888C211.86 168.007 211.256 167.535 211.098 166.943C210.939 166.351 211.226 165.639 211.671 165.52C212.117 165.401 212.721 165.873 212.88 166.465C213.038 167.057 212.751 167.769 212.306 167.888Z" fill="white"/>
<path opacity="0.7" d="M217.806 334.554C217.36 334.673 216.756 334.2 216.598 333.608C216.439 333.016 216.726 332.305 217.171 332.186C217.617 332.066 218.221 332.539 218.38 333.131C218.538 333.723 218.251 334.434 217.806 334.554Z" fill="white"/>
<path opacity="0.7" d="M225.127 130.189C224.682 130.308 224.078 129.836 223.919 129.244C223.76 128.652 224.047 127.94 224.493 127.821C224.938 127.701 225.542 128.174 225.701 128.766C226.305 129.239 226.018 129.95 225.127 130.189Z" fill="white"/>
<path opacity="0.7" d="M349.243 299.336C348.798 299.455 348.194 298.982 348.035 298.39C347.876 297.799 348.163 297.087 348.609 296.968C349.054 296.848 349.659 297.321 349.817 297.913C349.976 298.505 349.689 299.216 349.243 299.336Z" fill="white"/>
<path opacity="0.7" d="M337.165 159.811C336.72 159.93 336.116 159.458 335.957 158.866C335.798 158.274 336.085 157.562 336.531 157.443C336.976 157.323 337.58 157.796 337.739 158.388C337.898 158.98 337.611 159.691 337.165 159.811Z" fill="white"/>
<path opacity="0.7" d="M250.315 26.3648C249.424 26.6035 248.216 25.6583 247.898 24.4744C247.581 23.2904 248.155 21.8677 249.046 21.6289C249.937 21.3901 251.145 22.3353 251.463 23.5193C251.78 24.7033 251.206 26.126 250.315 26.3648Z" fill="white"/>
<path opacity="0.7" d="M280.874 44.1896C279.982 44.4283 278.774 43.4831 278.457 42.2991C278.14 41.1151 278.713 39.6924 279.605 39.4536C280.496 39.2148 281.704 40.1601 282.021 41.3441C282.338 42.528 281.765 43.9508 280.874 44.1896Z" fill="white"/>
<path opacity="0.7" d="M156.237 56.6476C155.346 56.8863 154.137 55.9411 153.82 54.7571C153.503 53.5731 154.077 52.1504 154.968 51.9116C155.859 51.6728 157.067 52.6181 157.384 53.8021C157.702 54.986 157.128 56.4088 156.237 56.6476Z" fill="white"/>
<path opacity="0.7" d="M317.549 136.511C316.658 136.75 315.45 135.804 315.133 134.62C314.815 133.436 315.389 132.014 316.28 131.775C317.171 131.536 318.38 132.481 318.697 133.665C319.014 134.849 318.44 136.272 317.549 136.511Z" fill="white"/>
<path opacity="0.7" d="M183.904 117.123C183.013 117.362 182.409 116.889 182.092 115.705C181.774 114.521 182.061 113.81 182.952 113.571C183.844 113.332 184.448 113.805 184.765 114.989C185.082 116.173 184.795 116.884 183.904 117.123Z" fill="white"/>
<path opacity="0.7" d="M281.297 275.663C279.96 276.021 278.147 274.603 277.672 272.827C277.196 271.051 278.057 268.917 279.393 268.559C280.73 268.201 282.542 269.619 283.018 271.395C283.653 273.763 283.079 275.185 281.297 275.663Z" fill="white"/>
<path opacity="0.7" d="M326.982 82.5942C326.091 82.833 325.487 82.3603 325.17 81.1764C324.853 79.9924 325.139 79.281 326.031 79.0422C326.922 78.8035 327.526 79.2761 327.843 80.4601C328.002 81.0521 327.873 82.3554 326.982 82.5942Z" fill="white"/>
<path opacity="0.7" d="M370.255 37.3685C369.81 37.4878 369.205 37.0153 369.047 36.4233C368.888 35.8313 369.175 35.1199 369.621 35.0005C370.066 34.8811 370.67 35.3537 370.829 35.9457C370.988 36.5377 370.701 37.2491 370.255 37.3685Z" fill="white"/>
<path opacity="0.7" d="M375.518 142.554C374.627 142.793 373.419 141.847 373.101 140.663C372.784 139.479 373.358 138.057 374.249 137.818C375.14 137.579 376.349 138.524 376.666 139.708C377.142 141.484 376.409 142.315 375.518 142.554Z" fill="white"/>
<path opacity="0.7" d="M349.572 40.3739C348.681 40.6127 348.077 40.1401 347.76 38.9561C347.442 37.7722 347.729 37.0608 348.62 36.822C349.511 36.5832 350.116 37.0559 350.433 38.2398C350.592 38.8318 350.463 40.1352 349.572 40.3739Z" fill="white"/>
<path opacity="0.7" d="M238.837 213.439C238.392 213.559 237.787 213.086 237.629 212.494C237.47 211.902 237.757 211.191 238.203 211.071C238.648 210.952 239.252 211.425 239.411 212.017C239.57 212.609 239.283 213.32 238.837 213.439Z" fill="white"/>
<path opacity="0.7" d="M157.506 98.8163C156.615 99.0551 156.01 98.5825 155.693 97.3985C155.376 96.2146 155.663 95.5032 156.554 95.2644C157.445 95.0256 158.049 95.4983 158.366 96.6822C158.684 97.8662 158.397 98.5775 157.506 98.8163Z" fill="white"/>
<path opacity="0.7" d="M358.594 221.961C357.257 222.319 355.444 220.902 354.969 219.126C354.493 217.35 355.353 215.216 356.69 214.857C358.027 214.499 359.839 215.917 360.315 217.693C360.791 219.469 359.93 221.603 358.594 221.961Z" fill="white"/>
<path opacity="0.7" d="M363.385 279.048C362.494 279.287 361.286 278.341 360.969 277.158C360.651 275.974 361.225 274.551 362.116 274.312C363.007 274.073 364.216 275.018 364.533 276.202C364.85 277.386 364.276 278.809 363.385 279.048Z" fill="white"/>
<path opacity="0.7" d="M365.26 321.691C364.369 321.93 363.764 321.458 363.447 320.274C363.13 319.09 363.417 318.378 364.308 318.139C365.199 317.901 365.803 318.373 366.12 319.557C366.279 320.149 365.705 321.572 365.26 321.691Z" fill="white"/>
<path opacity="0.7" d="M373.062 473.785C373.508 473.665 374.112 474.138 374.27 474.73C374.429 475.322 374.142 476.033 373.697 476.153C373.251 476.272 372.647 475.8 372.488 475.208C372.33 474.616 372.617 473.904 373.062 473.785Z" fill="white"/>
<path opacity="0.7" d="M284.065 523.014C284.957 522.775 286.165 523.721 286.482 524.905C286.799 526.089 286.226 527.511 285.334 527.75C284.443 527.989 283.235 527.044 282.918 525.86C282.601 524.676 282.729 523.372 284.065 523.014Z" fill="white"/>
<path opacity="0.7" d="M281.046 353.141C281.937 352.902 283.145 353.847 283.463 355.031C283.78 356.215 283.206 357.638 282.315 357.877C281.424 358.115 280.216 357.17 279.898 355.986C279.422 354.21 280.155 353.379 281.046 353.141Z" fill="white"/>
<path opacity="0.7" d="M329.733 347.71C331.07 347.352 332.882 348.77 333.358 350.546C333.834 352.322 332.973 354.456 331.636 354.814C330.3 355.172 328.487 353.755 328.011 351.979C327.823 349.491 328.396 348.069 329.733 347.71Z" fill="white"/>
<path opacity="0.7" d="M360.837 809.535C360.392 809.655 359.787 809.182 359.629 808.59C359.47 807.998 359.757 807.287 360.203 807.167C360.648 807.048 361.252 807.521 361.411 808.113C361.57 808.705 361.283 809.416 360.837 809.535Z" fill="white"/>
<path opacity="0.7" d="M299.917 432.472C299.025 432.711 297.817 431.766 297.5 430.582C297.183 429.398 297.756 427.975 298.648 427.736C299.539 427.498 300.747 428.443 301.064 429.627C301.381 430.811 301.253 432.114 299.917 432.472Z" fill="white"/>
<path opacity="0.7" d="M309.627 666.535C308.736 666.773 308.132 666.301 307.814 665.117C307.497 663.933 307.784 663.221 308.675 662.983C309.566 662.744 310.17 663.217 310.488 664.4C310.805 665.584 310.518 666.296 309.627 666.535Z" fill="white"/>
<path opacity="0.7" d="M244.254 290.669C242.917 291.027 241.105 289.609 240.629 287.833C240.153 286.057 241.014 283.923 242.35 283.565C243.687 283.207 245.499 284.625 245.975 286.401C246.164 288.888 245.59 290.311 244.254 290.669Z" fill="white"/>
<g opacity="0.7">
<path opacity="0.7" d="M222.344 315.978L215.512 318.604L216.146 327.36L214.52 318.898L206.479 320.69L214.303 317.77L212.677 309.308L215.295 317.475L222.344 315.978Z" fill="white"/>
<path opacity="0.7" d="M218.487 320.691L214.971 318.754L212.042 322.605L214.367 318.337L210.633 315.272L214.754 317.626L217.078 313.357L215.358 318.042L218.487 320.691Z" fill="white"/>
</g>
<g opacity="0.7">
<path opacity="0.7" d="M384.958 817.968L375.26 822.042L376.049 834.33L373.772 822.483L362.153 824.742L373.339 820.227L371.062 808.381L374.826 819.785L384.958 817.968Z" fill="white"/>
</g>
<g opacity="0.7">
<path opacity="0.7" d="M366.594 578.073L359.266 580.846L360.396 589.455L358.274 581.14L350.729 582.785L358.057 580.012L356.927 571.403L359.049 579.717L366.594 578.073Z" fill="white"/>
<path opacity="0.7" d="M362.736 582.765L358.748 580.979L355.836 584.818L358.147 580.563L354.436 577.505L358.532 579.854L360.843 575.598L359.133 580.269L362.736 582.765Z" fill="white"/>
</g>
<path opacity="0.7" d="M116.427 762.617C117.318 762.378 118.527 763.323 118.844 764.507C119.161 765.691 118.587 767.114 117.696 767.353C116.805 767.591 115.597 766.646 115.28 765.462C114.804 763.686 115.536 762.855 116.427 762.617Z" fill="white"/>
<path opacity="0.7" d="M62.9246 230.485C63.3701 230.365 63.9743 230.838 64.1329 231.43C64.2915 232.022 64.0046 232.733 63.559 232.853C63.1135 232.972 62.5094 232.499 62.3507 231.907C62.1921 231.315 62.479 230.604 62.9246 230.485Z" fill="white"/>
<path opacity="0.7" d="M97.655 412.082C98.1006 411.962 98.7047 412.435 98.8634 413.027C99.022 413.619 98.7351 414.33 98.2895 414.45C97.844 414.569 97.2398 414.096 97.0812 413.504C96.9226 412.912 97.2095 412.201 97.655 412.082Z" fill="white"/>
<path opacity="0.7" d="M1.57787 168.125C2.02342 168.005 2.62761 168.478 2.78623 169.07C2.94485 169.662 2.65792 170.373 2.21237 170.493C1.76682 170.612 1.16264 170.139 1.00402 169.547C0.399845 169.075 0.686766 168.364 1.57787 168.125Z" fill="white"/>
<path opacity="0.7" d="M32.2397 268.834C33.1308 268.595 34.3391 269.54 34.6563 270.724C34.9736 271.908 34.3998 273.331 33.5087 273.57C32.6176 273.809 31.4093 272.863 31.0921 271.679C30.7748 270.495 31.3487 269.073 32.2397 268.834Z" fill="white"/>
<path opacity="0.7" d="M80.03 260.228C80.4756 260.108 81.0797 260.581 81.2384 261.173C81.397 261.765 81.1101 262.476 80.6645 262.596C80.219 262.715 79.6148 262.242 79.4562 261.65C79.2976 261.058 79.5845 260.347 80.03 260.228Z" fill="white"/>
<path opacity="0.7" d="M27.4246 406.937C27.8701 406.818 28.4743 407.291 28.6329 407.882C28.7915 408.474 28.5046 409.186 28.059 409.305C27.6135 409.425 27.0094 408.952 26.8507 408.36C26.6921 407.768 26.979 407.057 27.4246 406.937Z" fill="white"/>
<path opacity="0.7" d="M46.5393 595.29C47.8759 594.931 49.6884 596.349 50.1643 598.125C50.6402 599.901 49.7794 602.035 48.4428 602.394C47.1062 602.752 45.2936 601.334 44.8178 599.558C44.7874 597.663 45.2027 595.648 46.5393 595.29Z" fill="white"/>
<path opacity="0.7" d="M51.9675 637.885C52.4131 637.766 53.0172 638.238 53.1759 638.83C53.3345 639.422 53.0476 640.134 52.602 640.253C52.1565 640.372 51.5523 639.9 51.3937 639.308C51.2351 638.716 51.522 638.004 51.9675 637.885Z" fill="white"/>
<path opacity="0.7" d="M142.155 582.438C142.601 582.319 143.205 582.791 143.363 583.383C143.522 583.975 143.235 584.687 142.79 584.806C142.344 584.926 141.74 584.453 141.581 583.861C141.423 583.269 141.709 582.558 142.155 582.438Z" fill="white"/>
<path opacity="0.7" d="M135.538 656.041C135.983 655.922 136.588 656.395 136.746 656.986C136.905 657.578 136.618 658.29 136.172 658.409C135.727 658.529 135.123 658.056 134.964 657.464C134.805 656.872 135.092 656.161 135.538 656.041Z" fill="white"/>
<path opacity="0.7" d="M137.069 490.514C137.515 490.395 138.119 490.868 138.277 491.46C138.436 492.052 138.149 492.763 137.704 492.882C137.258 493.002 136.654 492.529 136.495 491.937C136.337 491.345 136.624 490.634 137.069 490.514Z" fill="white"/>
<path opacity="0.7" d="M121.037 692.506C121.482 692.387 122.087 692.859 122.245 693.451C122.404 694.043 122.117 694.755 121.671 694.874C121.226 694.993 120.622 694.521 120.463 693.929C119.859 693.456 120.146 692.745 121.037 692.506Z" fill="white"/>
<path opacity="0.7" d="M3.32105 516.34C3.76659 516.22 4.37074 516.693 4.52937 517.285C4.68799 517.877 4.40109 518.588 3.95555 518.708C3.51001 518.827 2.90583 518.354 2.74721 517.762C2.58859 517.17 2.87551 516.459 3.32105 516.34Z" fill="white"/>
<path opacity="0.7" d="M9.55734 655.428C10.0029 655.309 10.6071 655.781 10.7657 656.373C10.9243 656.965 10.6374 657.677 10.1918 657.796C9.74631 657.915 9.14216 657.443 8.98354 656.851C8.82491 656.259 9.11181 655.547 9.55734 655.428Z" fill="white"/>
<path opacity="0.7" d="M91.2437 793.662C92.1348 793.423 93.343 794.369 93.6603 795.552C93.9775 796.736 93.4037 798.159 92.5126 798.398C91.6216 798.637 90.4132 797.692 90.096 796.508C89.7787 795.324 90.3526 793.901 91.2437 793.662Z" fill="white"/>
<path opacity="0.7" d="M61.2475 773.891C62.1386 773.652 63.347 774.597 63.6642 775.781C63.9815 776.965 63.4076 778.388 62.5165 778.627C61.6255 778.866 60.4171 777.92 60.0999 776.737C59.7826 775.553 60.3565 774.13 61.2475 773.891Z" fill="white"/>
<path opacity="0.7" d="M187.193 770.147C188.084 769.908 189.292 770.853 189.61 772.037C189.927 773.221 189.353 774.644 188.462 774.883C187.571 775.122 186.362 774.176 186.045 772.992C185.728 771.808 186.302 770.386 187.193 770.147Z" fill="white"/>
<path opacity="0.7" d="M28.2554 679.879C29.1464 679.64 30.3548 680.585 30.672 681.769C30.9893 682.953 30.4154 684.376 29.5244 684.615C28.6333 684.854 27.4249 683.908 27.1077 682.724C26.7904 681.54 27.3643 680.118 28.2554 679.879Z" fill="white"/>
<path opacity="0.7" d="M161.947 708.309C162.838 708.07 163.443 708.543 163.76 709.727C164.077 710.911 163.79 711.622 162.899 711.861C162.008 712.1 161.404 711.627 161.087 710.443C160.769 709.259 161.056 708.548 161.947 708.309Z" fill="white"/>
<path opacity="0.7" d="M70.5901 544.509C71.9267 544.151 73.7392 545.569 74.2151 547.345C74.691 549.121 73.8302 551.255 72.4936 551.613C71.157 551.971 69.3444 550.554 68.8686 548.778C68.2341 546.41 68.8079 544.987 70.5901 544.509Z" fill="white"/>
<path opacity="0.7" d="M16.506 732.648C17.3971 732.41 18.0012 732.882 18.3185 734.066C18.6357 735.25 18.3488 735.962 17.4577 736.2C16.5666 736.439 15.9625 735.967 15.6452 734.783C15.4866 734.191 15.6149 732.887 16.506 732.648Z" fill="white"/>
<path opacity="0.7" d="M110.772 609.074C111.218 608.955 111.822 609.427 111.981 610.019C112.139 610.611 111.852 611.323 111.407 611.442C110.961 611.561 110.357 611.089 110.198 610.497C110.04 609.905 110.327 609.193 110.772 609.074Z" fill="white"/>
<path opacity="0.7" d="M187.725 728.271C188.616 728.032 189.22 728.505 189.537 729.689C189.854 730.873 189.568 731.584 188.676 731.823C187.785 732.062 187.181 731.589 186.864 730.405C186.547 729.221 186.834 728.51 187.725 728.271Z" fill="white"/>
<path opacity="0.7" d="M78.54 299.168C77.6489 299.407 76.4405 298.461 76.1233 297.277C75.8061 296.093 76.3799 294.671 77.271 294.432C78.1621 294.193 79.3704 295.138 79.6877 296.322C80.0049 297.506 79.8766 298.81 78.54 299.168Z" fill="white"/>
<path opacity="0.7" d="M74.3681 467.698C73.477 467.937 72.2687 466.992 71.9515 465.808C71.6342 464.624 72.208 463.201 73.0991 462.962C73.9902 462.724 75.1986 463.669 75.5158 464.853C75.9917 466.629 75.2592 467.459 74.3681 467.698Z" fill="white"/>
<path opacity="0.7" d="M25.1967 469.708C23.8601 470.066 22.0476 468.648 21.5717 466.872C21.0958 465.096 21.9566 462.962 23.2932 462.604C24.6298 462.246 26.4423 463.664 26.9182 465.44C27.1072 467.927 26.5333 469.35 25.1967 469.708Z" fill="white"/>
<path opacity="0.7" d="M13.2917 9.99189C13.7373 9.87251 14.3415 10.3451 14.5001 10.9371C14.6587 11.529 14.3718 12.2405 13.9262 12.3599C13.4807 12.4793 12.8765 12.0066 12.7179 11.4146C12.5593 10.8226 12.8462 10.1113 13.2917 9.99189Z" fill="white"/>
<path opacity="0.7" d="M58.5522 387.834C59.4433 387.595 60.6516 388.54 60.9689 389.724C61.2861 390.908 60.7123 392.331 59.8212 392.57C58.9301 392.809 57.7218 391.863 57.4046 390.679C57.0873 389.495 57.2156 388.192 58.5522 387.834Z" fill="white"/>
<path opacity="0.7" d="M58.7326 155.228C59.6237 154.989 60.2278 155.462 60.5451 156.646C60.8623 157.83 60.5754 158.541 59.6843 158.78C58.7932 159.019 58.189 158.546 57.8718 157.362C57.5545 156.178 57.8415 155.467 58.7326 155.228Z" fill="white"/>
<path opacity="0.7" d="M108.504 532.196C109.841 531.838 111.653 533.256 112.129 535.032C112.605 536.808 111.744 538.942 110.408 539.3C109.071 539.658 107.259 538.241 106.783 536.465C106.594 533.977 107.168 532.555 108.504 532.196Z" fill="white"/>
<g opacity="0.7">
<path opacity="0.7" d="M131.914 509.166L138.746 506.54L138.112 497.784L139.738 506.245L147.778 504.453L139.955 507.374L141.581 515.835L138.963 507.668L131.914 509.166Z" fill="white"/>
<path opacity="0.7" d="M135.77 504.454L139.287 506.391L142.215 502.54L139.891 506.808L143.625 509.873L139.504 507.519L137.18 511.788L138.9 507.103L135.77 504.454Z" fill="white"/>
</g>
<g opacity="0.7">
<path opacity="0.7" d="M-10.3585 0.775513L-0.660109 -3.29796L-1.44934 -15.586L0.827153 -3.73974L12.4465 -5.99862L1.26076 -1.48335L3.53725 10.3629L-0.226499 -1.04156L-10.3585 0.775513Z" fill="white"/>
<path opacity="0.7" d="M-5.28274 -6.07534L0.40984 -3.60276L4.59164 -9.01293L1.61308 -2.77044L6.64196 1.68497L0.73356 -1.91369L-2.73871 4.47568L-0.361765 -2.18293L-5.28274 -6.07534Z" fill="white"/>
</g>
<g opacity="0.7">
<path opacity="0.7" d="M-2.11729 239.505L5.21074 236.731L4.08043 228.123L6.20229 236.437L13.7471 234.792L6.41909 237.565L7.54936 246.174L5.42754 237.86L-2.11729 239.505Z" fill="white"/>
<path opacity="0.7" d="M1.74253 234.813L5.7308 236.599L8.64215 232.759L6.33135 237.014L10.0422 240.072L5.94619 237.724L3.6354 241.979L5.34567 237.308L1.74253 234.813Z" fill="white"/>
</g>
<path opacity="0.7" d="M271.752 797.181C272.197 797.062 272.801 797.535 272.96 798.127C273.119 798.719 272.832 799.43 272.386 799.549C271.941 799.669 271.336 799.196 271.178 798.604C270.574 798.132 270.861 797.42 271.752 797.181Z" fill="white"/>
<path opacity="0.7" d="M135.686 110.779C136.132 110.66 136.736 111.132 136.895 111.724C137.053 112.316 136.766 113.028 136.321 113.147C135.875 113.266 135.271 112.794 135.112 112.202C134.954 111.61 135.241 110.898 135.686 110.779Z" fill="white"/>
<path opacity="0.7" d="M245.21 788.593C245.655 788.474 246.259 788.946 246.418 789.538C246.577 790.13 246.29 790.842 245.844 790.961C245.399 791.08 244.795 790.608 244.636 790.016C244.477 789.424 244.764 788.712 245.21 788.593Z" fill="white"/>
<path opacity="0.7" d="M286.759 716.975C287.65 716.737 288.859 717.682 289.176 718.866C289.493 720.05 288.919 721.473 288.028 721.711C287.137 721.95 285.929 721.005 285.612 719.821C285.136 718.045 285.868 717.214 286.759 716.975Z" fill="white"/>
<path opacity="0.7" d="M142.944 239.696C143.39 239.576 143.994 240.049 144.152 240.641C144.311 241.233 144.024 241.944 143.579 242.063C143.133 242.183 142.529 241.71 142.37 241.118C142.212 240.526 142.499 239.815 142.944 239.696Z" fill="white"/>
<path opacity="0.7" d="M119.232 281.687C120.123 281.449 121.331 282.394 121.649 283.578C121.966 284.762 121.392 286.185 120.501 286.423C119.61 286.662 118.402 285.717 118.084 284.533C117.767 283.349 118.341 281.926 119.232 281.687Z" fill="white"/>
<path opacity="0.7" d="M119.99 343.895C120.881 343.656 122.089 344.601 122.406 345.785C122.724 346.969 122.15 348.392 121.259 348.63C120.368 348.869 119.159 347.924 118.842 346.74C118.525 345.556 119.099 344.133 119.99 343.895Z" fill="white"/>
<path opacity="0.7" d="M197.757 361.297C198.202 361.178 198.806 361.65 198.965 362.242C199.124 362.834 198.837 363.546 198.391 363.665C197.946 363.784 197.341 363.312 197.183 362.72C197.024 362.128 197.311 361.417 197.757 361.297Z" fill="white"/>
<path opacity="0.7" d="M216.871 549.649C218.208 549.291 220.02 550.709 220.496 552.485C220.972 554.261 220.111 556.395 218.775 556.753C217.438 557.111 215.626 555.693 215.15 553.917C215.119 552.022 215.535 550.007 216.871 549.649Z" fill="white"/>
<path opacity="0.7" d="M222.303 592.244C222.749 592.124 223.353 592.597 223.512 593.189C223.67 593.781 223.384 594.492 222.938 594.612C222.492 594.731 221.888 594.259 221.73 593.667C221.571 593.075 221.858 592.363 222.303 592.244Z" fill="white"/>
<path opacity="0.7" d="M291.369 646.865C291.814 646.746 292.419 647.218 292.577 647.81C292.736 648.402 292.449 649.114 292.003 649.233C291.558 649.352 290.954 648.88 290.795 648.288C290.191 647.815 290.478 647.104 291.369 646.865Z" fill="white"/>
<path opacity="0.7" d="M173.655 470.699C174.101 470.58 174.705 471.052 174.863 471.644C175.022 472.236 174.735 472.948 174.29 473.067C173.844 473.186 173.24 472.714 173.081 472.122C172.923 471.53 173.209 470.818 173.655 470.699Z" fill="white"/>
<path opacity="0.7" d="M179.889 609.787C180.335 609.668 180.939 610.141 181.098 610.733C181.256 611.325 180.969 612.036 180.524 612.155C180.078 612.275 179.474 611.802 179.316 611.21C179.157 610.618 179.444 609.907 179.889 609.787Z" fill="white"/>
<path opacity="0.7" d="M261.576 748.021C262.467 747.782 263.675 748.727 263.992 749.911C264.31 751.095 263.736 752.518 262.845 752.757C261.954 752.996 260.745 752.05 260.428 750.866C260.111 749.682 260.685 748.26 261.576 748.021Z" fill="white"/>
<path opacity="0.7" d="M231.58 728.25C232.471 728.011 233.679 728.956 233.996 730.14C234.313 731.324 233.74 732.747 232.849 732.986C231.957 733.225 230.749 732.279 230.432 731.095C230.115 729.911 230.688 728.489 231.58 728.25Z" fill="white"/>
<path opacity="0.7" d="M198.591 634.238C199.482 633.999 200.691 634.944 201.008 636.128C201.325 637.312 200.751 638.735 199.86 638.974C198.969 639.212 197.761 638.267 197.444 637.083C197.126 635.899 197.7 634.476 198.591 634.238Z" fill="white"/>
<path opacity="0.7" d="M240.926 498.869C242.263 498.511 244.075 499.928 244.551 501.704C245.027 503.48 244.166 505.615 242.83 505.973C241.493 506.331 239.68 504.913 239.205 503.137C238.57 500.769 239.144 499.346 240.926 498.869Z" fill="white"/>
<path opacity="0.7" d="M160.867 546.744C162.204 546.386 164.017 547.804 164.492 549.58C164.968 551.356 164.108 553.49 162.771 553.848C161.434 554.206 159.622 552.789 159.146 551.013C158.67 549.237 159.531 547.102 160.867 546.744Z" fill="white"/>
<path opacity="0.7" d="M158.513 489.836C159.404 489.598 160.613 490.543 160.93 491.727C161.247 492.911 160.673 494.334 159.782 494.572C158.891 494.811 157.683 493.866 157.366 492.682C157.048 491.498 157.622 490.075 158.513 489.836Z" fill="white"/>
<path opacity="0.7" d="M158.459 447.446C159.35 447.207 159.954 447.68 160.272 448.864C160.589 450.048 160.302 450.759 159.411 450.998C158.52 451.237 157.916 450.764 157.598 449.58C157.44 448.988 158.014 447.565 158.459 447.446Z" fill="white"/>
<path opacity="0.7" d="M115.946 405.145C115.5 405.264 114.896 404.791 114.737 404.199C114.579 403.607 114.866 402.896 115.311 402.776C115.757 402.657 116.361 403.13 116.52 403.722C116.678 404.314 116.391 405.025 115.946 405.145Z" fill="white"/>
<path opacity="0.7" d="M157.18 296.176C156.735 296.295 156.13 295.822 155.972 295.23C155.813 294.638 156.1 293.927 156.546 293.808C156.991 293.688 157.595 294.161 157.754 294.753C157.913 295.345 157.626 296.056 157.18 296.176Z" fill="white"/>
<path opacity="0.7" d="M195.533 424.067C194.196 424.426 192.383 423.008 191.908 421.232C191.432 419.456 192.293 417.322 193.629 416.964C194.966 416.605 196.778 418.023 197.254 419.799C197.443 422.286 196.869 423.709 195.533 424.067Z" fill="white"/>
<path opacity="0.7" d="M93.3113 19.1989C93.7568 19.0795 94.361 19.5521 94.5196 20.1441C94.6782 20.7361 94.3913 21.4475 93.9458 21.5669C93.5002 21.6863 92.896 21.2136 92.7374 20.6216C92.5788 20.0296 92.8657 19.3183 93.3113 19.1989Z" fill="white"/>
<path opacity="0.7" d="M50.8972 36.7423C51.3427 36.6229 51.9469 37.0955 52.1055 37.6875C52.2641 38.2795 51.9772 38.991 51.5317 39.1104C51.0861 39.2297 50.482 38.757 50.3233 38.165C50.1647 37.573 50.4516 36.8616 50.8972 36.7423Z" fill="white"/>
<path opacity="0.7" d="M116.604 47.1285C117.495 46.8897 118.099 47.3623 118.416 48.5463C118.733 49.7303 118.446 50.4417 117.555 50.6804C116.664 50.9192 116.06 50.4466 115.743 49.2626C115.584 48.6706 115.713 47.3672 116.604 47.1285Z" fill="white"/>
<path opacity="0.7" d="M102.583 155.207C103.475 154.968 104.683 155.913 105 157.097C105.317 158.281 104.744 159.704 103.852 159.943C102.961 160.182 101.753 159.236 101.436 158.052C101.119 156.868 101.692 155.446 102.583 155.207Z" fill="white"/>
<path opacity="0.7" d="M69.5991 61.1947C70.4902 60.956 71.6985 61.9012 72.0158 63.0852C72.333 64.2692 71.7592 65.6919 70.8681 65.9307C69.977 66.1694 68.7687 65.2243 68.4515 64.0403C68.1342 62.8563 68.708 61.4335 69.5991 61.1947Z" fill="white"/>
<g opacity="0.7">
<path opacity="0.7" d="M97.5351 75.3239L104.863 72.5509L103.733 63.942L105.855 72.2563L113.399 70.6114L106.071 73.3845L107.202 81.9934L105.08 73.6791L97.5351 75.3239Z" fill="white"/>
<path opacity="0.7" d="M101.393 70.6324L105.381 72.4184L108.293 68.5786L105.982 72.8342L109.693 75.892L105.597 73.5435L103.286 77.7991L104.996 73.1276L101.393 70.6324Z" fill="white"/>
</g>
<g opacity="0.7">
<path opacity="0.7" d="M168.219 193.864L175.547 191.091L174.416 182.482L176.538 190.796L184.083 189.151L176.755 191.925L177.885 200.533L175.763 192.219L168.219 193.864Z" fill="white"/>
<path opacity="0.7" d="M172.077 189.172L176.065 190.958L178.976 187.118L176.665 191.374L180.376 194.432L176.28 192.083L173.969 196.339L175.68 191.667L172.077 189.172Z" fill="white"/>
</g>
</g>
</g>
<defs>
<radialGradient id="paint0_radial_1563_165784" cx="0" cy="0" r="1" gradientUnits="userSpaceOnUse" gradientTransform="translate(187.5 406) rotate(90) scale(406 187.5)">
<stop stop-color="#3C3252"/>
<stop offset="1" stop-color="#0E0326"/>
</radialGradient>
<clipPath id="clip0_1563_165784">
<rect width="375" height="812" fill="white"/>
</clipPath>
</defs>
</svg>
